<?xml version="1.0" encoding="UTF-8"?>
<svg width="67px" height="67px" viewBox="0 0 67 67" version="1.1" xmlns="http://www.w3.org/2000/svg" xmlns:xlink="http://www.w3.org/1999/xlink">
    <!-- Generator: Sketch 53 (72520) - https://sketchapp.com -->
    <title>icon_bg_1</title>
    <desc>Created with Sketch.</desc>
    <defs>
        <linearGradient x1="0%" y1="50%" x2="100%" y2="50%" id="linearGradient-1">
            <stop stop-color="#FB6640" offset="0%"></stop>
            <stop stop-color="#E59E3C" offset="100%"></stop>
        </linearGradient>
    </defs>
    <g id="Customer-2" stroke="none" stroke-width="1" fill="none" fill-rule="evenodd">
        <g id="Customer-V2-Slices-Copy" transform="translate(-923.000000, -239.000000)">
            <g id="icon_bg_1" transform="translate(923.000000, 239.000000)">
                <circle id="Oval" fill="url(#linearGradient-1)" cx="33.5" cy="33.5" r="33.5"></circle>
                <path d="M33.4991912,17 C24.4014632,17 17,24.4014632 17,33.4991912 C17,42.5969191 24.4014632,49.9983824 33.4991912,49.9983824 C42.5969191,49.9983824 49.9984632,42.5968382 49.9984632,33.4991912 C49.9984632,24.4015441 42.5969191,17 33.4991912,17 Z M33.4991912,49.0277941 C24.9366618,49.0277941 17.9705882,42.0616397 17.9705882,33.4991912 C17.9705882,24.9367426 24.9366618,17.9705882 33.4991912,17.9705882 C42.0617206,17.9705882 49.0277941,24.9366618 49.0277941,33.4991912 C49.0277941,42.0617206 42.0617206,49.0277941 33.4991912,49.0277941 Z" id="Shape" fill="#FFFFFF" fill-rule="nonzero"></path>
                <path d="M37.678625,33.4991912 C37.678625,31.1946912 35.8036912,29.3197574 33.4991912,29.3197574 C31.1946912,29.3197574 29.3197574,31.1946912 29.3197574,33.4991912 C29.3197574,35.8037721 31.1946103,37.6787059 33.4991912,37.6787059 C35.8037721,37.6787059 37.678625,35.8037721 37.678625,33.4991912 Z M33.4991912,36.7081176 C31.7298897,36.7081176 30.2903456,35.2685735 30.2903456,33.4991912 C30.2903456,31.7298088 31.7298088,30.2903456 33.4991912,30.2903456 C35.2685735,30.2903456 36.7080368,31.7298088 36.7080368,33.4991912 C36.7080368,35.2685735 35.2684926,36.7081176 33.4991912,36.7081176 Z" id="Shape" fill="#FFFFFF" fill-rule="nonzero"></path>
                <path d="M46.4757941,36.4970956 C46.4755515,36.4970147 46.4749044,36.4968529 46.4748235,36.4968529 C43.1973088,35.6222721 39.6722941,36.5671397 37.2761544,38.9633603 C35.2134926,41.0259412 34.219125,43.8727574 34.5479926,46.7740074 C34.5479926,46.7740882 34.5480735,46.7741691 34.5480735,46.77425 C34.5480735,46.7744118 34.5480735,46.7744926 34.5480735,46.7746544 C34.5764632,47.0222353 34.7862721,47.2047059 35.0295662,47.2047059 C35.0480882,47.2047059 35.0667721,47.2035735 35.0854559,47.2014706 C37.8496103,46.8844118 40.4250662,45.7499559 42.5333456,43.9206397 C44.6221324,42.1083088 46.1038971,39.7468676 46.8183309,37.0916618 C46.8879706,36.833 46.7346176,36.5668162 46.4757941,36.4970956 Z M41.8972868,43.1876029 C40.0640882,44.7781544 37.8512279,45.8032574 35.4706176,46.1703824 C35.3341691,43.7378456 36.2274338,41.3847353 37.9625221,39.6496471 C39.9970368,37.6149706 42.9378382,36.7462941 45.7408971,37.3214485 C45.0335,39.5929485 43.712125,41.6129853 41.8972868,43.1876029 Z" id="Shape" fill="#FFFFFF" fill-rule="nonzero"></path>
                <path d="M20.5233971,36.4968529 C20.5233162,36.4968529 20.5232353,36.4969338 20.5232353,36.4969338 C20.5229926,36.4970147 20.52275,36.4970147 20.5225074,36.4970956 C20.2636838,36.5667353 20.1103309,36.833 20.1799706,37.0918235 C20.8944044,39.7470294 22.3761691,42.1083897 24.4649559,43.9208015 C26.5732353,45.7500368 29.1486912,46.8845735 31.9127647,47.2016324 C31.9315294,47.2037353 31.9502132,47.2048676 31.9686544,47.2048676 C32.2119485,47.2048676 32.4218382,47.0222353 32.4502279,46.7748162 C32.4502279,46.7746544 32.4502279,46.7745735 32.4502279,46.7744118 C32.4502279,46.7743309 32.4503088,46.77425 32.4503088,46.7741691 C32.7791765,43.873 31.7848088,41.0261029 29.7222279,38.9635221 C27.3259265,36.5671397 23.8012353,35.6220294 20.5233971,36.4968529 Z M31.5276029,46.1703824 C29.1469926,45.8033382 26.9341324,44.7781544 25.1010147,43.1876029 C23.2861765,41.6129853 21.9647206,39.5929485 21.2574044,37.3214485 C24.0603015,36.7462941 27.0011838,37.6150515 29.0358603,39.6496471 C30.7708676,41.3846544 31.6641324,43.7379265 31.5276029,46.1703824 Z" id="Shape" fill="#FFFFFF" fill-rule="nonzero"></path>
                <path d="M43.1852574,23.6810441 C40.5880441,21.1183676 37.1480368,19.7070515 33.4991103,19.7070515 C29.8501838,19.7070515 26.4102574,21.1183676 23.8128824,23.6810441 C21.2181765,26.2411324 19.7605956,29.6565515 19.7086691,33.2980368 C19.7057574,33.504125 19.8332279,33.6895074 20.0266176,33.7605221 C20.0812941,33.7806618 20.1378309,33.7902868 20.1938015,33.7902868 C20.3359118,33.7902868 20.4743015,33.7278456 20.5682868,33.6137206 C23.4607206,30.1066618 28.2946544,28.0128603 33.4990294,28.0128603 C38.7034044,28.0128603 43.5372574,30.1066618 46.4297721,33.6137206 C46.5608824,33.7727353 46.7780515,33.831375 46.9714412,33.7604412 C47.1649118,33.6894265 47.2923824,33.5040441 47.2893897,33.2979559 C47.237625,29.6565515 45.7799632,26.2411324 43.1852574,23.6810441 Z M33.4991103,27.0423529 C28.540375,27.0423529 23.8889926,28.8576765 20.7694412,31.9553897 C21.1121397,29.0849559 22.4077132,26.4310441 24.4946397,24.3719412 C26.9091397,21.9896324 30.1069853,20.6776397 33.4991912,20.6776397 C36.8913971,20.6776397 40.0892426,21.9896324 42.5036618,24.3719412 C44.5905882,26.4310441 45.8861618,29.0849559 46.2289412,31.9553897 C43.1092279,28.8576765 38.4578456,27.0423529 33.4991103,27.0423529 Z" id="Shape" fill="#FFFFFF" fill-rule="nonzero"></path>
            </g>
        </g>
    </g>
</svg>