<?xml version="1.0" encoding="UTF-8"?>
<svg width="59px" height="63px" viewBox="0 0 59 63" version="1.1" xmlns="http://www.w3.org/2000/svg" xmlns:xlink="http://www.w3.org/1999/xlink">
    <!-- Generator: Sketch 53 (72520) - https://sketchapp.com -->
    <title>icon_hourly</title>
    <desc>Created with Sketch.</desc>
    <g id="Customer-2" stroke="none" stroke-width="1" fill="none" fill-rule="evenodd">
        <g id="Customer-V2-Home" transform="translate(-208.000000, -1676.000000)" fill-rule="nonzero">
            <g id="Group-13" transform="translate(208.000000, 1676.000000)">
                <g id="icon_hourly">
                    <path d="M38.3191562,32.6531458 C39.0000239,32.4543142 40.5944317,31.9875708 41.3355792,29.7842526 L42.8625401,25.2454066 L43.4767289,25.456269 C43.7579067,25.5530329 44.0660889,25.3996078 44.16182,25.1153963 L44.9810369,22.6802587 C45.0767679,22.3960472 44.9249805,22.0846694 44.6435466,21.9880349 L24.8483427,15.1845524 C24.5672928,15.0879179 24.2588547,15.2414723 24.1632516,15.5255544 L23.3440347,17.9605626 C23.2485597,18.2446448 23.4004751,18.556152 23.681397,18.6529158 L24.2955857,18.864037 L22.7412364,23.4855462 C22.007256,25.6672608 22.4928221,26.4039856 23.4137852,27.5189692 L27.4195141,32.3675113 L26.9729826,33.6947803 C25.4402625,34.0309959 21.4349176,34.9131253 20.8957267,35.0705606 C20.214987,35.2696509 18.6201952,35.7358768 17.8789197,37.9394538 L16.56441,41.8475236 L15.9500933,41.6365318 C15.6691714,41.5398973 15.3606052,41.693193 15.2648742,41.9774045 L14.4460412,44.4124127 C14.3503102,44.6966242 14.5022256,45.0080021 14.7834035,45.1048953 L34.5787354,51.9085072 C34.8595293,52.0050123 35.1679675,51.8515873 35.2636985,51.5672464 L36.0824035,49.1326263 C36.1782625,48.8484148 36.0264751,48.5367782 35.7450412,48.4400144 L35.1311085,48.2288932 L36.4731345,44.2381602 C37.207115,42.0567043 36.7219328,41.3195914 35.8007137,40.2051253 L31.7952408,35.3564538 L32.2413883,34.0291848 C33.7742364,33.6930986 37.7795813,32.8110986 38.3191562,32.6531458 Z M29.9534425,36.1921417 L34.3093319,41.4640903 C34.6434946,41.8686099 34.8204946,42.0894333 34.8684881,42.2916283 C34.9262082,42.5344435 34.8490347,42.9644476 34.633256,43.6054435 L33.290974,47.5964353 L18.4045445,42.4801109 L19.7187983,38.5721704 C20.133846,37.3386899 20.886256,37.1185133 21.4354295,36.9578439 C21.8649393,36.8323614 25.5495597,36.0158193 27.921462,35.4972012 C28.2547289,35.4243696 28.52618,35.1797433 28.6359892,34.85323 L29.4352408,32.4774702 C29.544154,32.1530267 29.4783709,31.7948193 29.2611844,31.5318234 L24.9184772,26.2756571 L24.905295,26.2594867 C24.5710043,25.8549671 24.3940043,25.6341437 24.3461388,25.4318193 C24.2885466,25.1890041 24.3653362,24.7593881 24.581243,24.1180041 L26.1357202,19.4964949 L41.0225336,24.6128193 L39.4954447,29.1517947 C39.0806529,30.3855339 38.3284989,30.6054517 37.7791974,30.7661211 C37.3499436,30.8917331 33.6651952,31.7085339 31.2935488,32.2267639 C30.960154,32.2997248 30.6884469,32.5440924 30.5785098,32.8708645 L29.7795141,35.2463655 C29.6703449,35.5709384 29.7365119,35.9288871 29.9534425,36.1921417 Z" id="Shape" fill="#F5385B"></path>
                    <path d="M41.7140239,54.9252628 C41.2795228,55.1741581 40.8314555,55.4124456 40.3831323,55.6333984 C40.3105662,55.669232 40.2405597,55.7084292 40.1728568,55.750731 C40.1009306,55.7759569 40.0293883,55.8053224 39.9583579,55.8386982 C38.0122538,56.755885 35.982961,57.4016674 33.8924924,57.7761745 C33.865744,57.7800554 33.8389957,57.7816078 33.8119913,57.7865236 C33.3191302,57.8746201 32.8175662,57.9479692 32.3215054,58.0054066 C32.3161302,58.0063121 32.3106269,58.0076057 32.3052516,58.0082526 C31.3942711,58.1098029 30.4730521,58.1616776 29.5422343,58.1616776 C18.8093536,58.1616776 9.65616269,51.2006304 6.26475054,41.511308 C6.21368547,41.3634456 6.16223644,41.2159713 6.11373102,41.0678501 C5.30078525,38.5968789 4.85924512,35.9560534 4.85924512,33.2126427 C4.85924512,30.46354 5.30270499,27.8168932 6.11910629,25.3413943 C6.13689588,25.2873203 6.15404555,25.2336345 6.17209111,25.1794312 C6.22085249,25.0353203 6.27127766,24.8917269 6.32272668,24.7485216 C6.34665944,24.6812526 6.37084816,24.6143717 6.39542082,24.5476201 C9.2135987,16.8805072 15.6598286,10.9821807 23.6143341,8.99270021 C23.6193254,8.99153593 23.6244447,8.99114784 23.629436,8.98998357 C23.7470521,8.96048871 23.865564,8.93177002 23.9842039,8.90408624 C23.9975141,8.90111088 24.0103124,8.89619507 24.0231106,8.89296099 C25.7584273,8.49089938 27.5628547,8.27473306 29.4145076,8.26516016 L29.4358807,10.830308 C29.4424078,11.6266694 29.9398764,11.8566776 30.5406269,11.3419405 L35.901308,6.74902053 C36.5019306,6.23428337 36.4955315,5.39975975 35.8855662,4.8952423 L30.4496312,0.393911704 C29.8401779,-0.110476386 29.3469328,0.127940452 29.3535879,0.924172485 L29.374961,3.48427515 C21.5808178,3.52787064 14.2598265,6.61474127 8.74364642,12.1901766 C8.2002321,12.7394538 7.68164642,13.3068419 7.18673753,13.8901417 C7.18379393,13.8935051 7.18072234,13.8962218 7.17765076,13.8998439 C7.15934924,13.9213183 7.14207158,13.9436982 7.12402603,13.9651725 C2.78221475,19.1150021 0.334418655,25.533499 0.142316703,32.3426735 C0.137581345,32.3955832 0.131950108,32.4481047 0.130670282,32.5021786 C0.125422993,32.7293409 0.122735358,32.9602546 0.122735358,33.1885811 C0.122735358,33.5629589 0.130286334,33.9423819 0.144236443,34.3166304 C0.145772234,34.3604846 0.151403471,34.4033039 0.155626898,34.4463819 C0.404425163,40.6503943 2.52676139,46.5159918 6.2502885,51.3743655 C6.26295879,51.3910534 6.27306941,51.4089055 6.28586768,51.4255934 C6.64959436,51.9000986 7.03418221,52.3702053 7.42747289,52.82246 C7.45281345,52.8515667 7.48058568,52.8767926 7.50669414,52.9044764 C7.90484816,53.3582834 8.31592842,53.8027762 8.7437744,54.2351088 C13.1109262,58.6495072 18.6097007,61.503653 24.5785553,62.5231663 C24.5967289,62.5265298 24.6150304,62.530152 24.6332039,62.5335154 C24.6467701,62.5355852 24.6602082,62.5364908 24.6735184,62.5385606 C26.2675423,62.805308 27.8944577,62.9433388 29.5422343,62.9433388 C33.8784143,62.9433388 38.055256,62.0107577 41.9570629,60.1723737 C42.0411475,60.1327885 42.1210087,60.0873819 42.1979262,60.0393881 C42.2853384,60.0089877 42.3712148,59.9728953 42.4559393,59.9311109 C42.9912907,59.6669507 43.5260022,59.3831273 44.0444599,59.0864969 C45.1812017,58.4357988 45.5812755,56.9770965 44.9376508,55.8280903 C44.2937701,54.6789548 42.8505098,54.2750821 41.7140239,54.9252628 Z" id="Path" fill="#5E72E4"></path>
                    <path d="M50.0381432,19.2975339 C50.4946573,19.9843244 51.2420759,20.3549507 52.0031887,20.3549507 C52.4567592,20.3549507 52.915705,20.2233881 53.3203861,19.9483614 C54.4045271,19.2118953 54.692744,17.7266735 53.9641388,16.6307064 C53.6315119,16.1307166 53.2800716,15.6348665 52.9177527,15.1571273 C52.1242603,14.1082485 50.6399176,13.90877 49.6023623,14.7108234 C48.5649349,15.5131355 48.3673297,17.0137515 49.1613341,18.0622423 C49.4647809,18.4633984 49.7597809,18.8790431 50.0381432,19.2975339 Z" id="Path" fill="#5E72E4"></path>
                    <path d="M53.0418959,25.5761889 C53.1939393,26.0562567 53.3335683,26.5484846 53.4574555,27.0394189 C53.7301866,28.1208973 54.6922321,28.8402875 55.747833,28.8402875 C55.9409588,28.8402875 56.1377961,28.8160965 56.3336095,28.7656448 C57.5994859,28.4396489 58.3641822,27.1378645 58.041538,25.8585893 C57.8943579,25.2747721 57.7279805,24.6891437 57.546757,24.1178747 C57.148731,22.860462 55.8171996,22.1672033 54.5733362,22.5700411 C53.3290889,22.9728789 52.6434859,24.3187762 53.0418959,25.5761889 Z" id="Path" fill="#5E72E4"></path>
                    <path d="M51.5352842,49.3055852 C50.5467462,48.4420842 49.0535727,48.551655 48.1991605,49.5503409 C47.8720369,49.9327392 47.5295553,50.3095749 47.1806746,50.6702402 C46.2676464,51.6147228 46.2850521,53.1282752 47.2195813,54.0512834 C47.679679,54.5057372 48.2763341,54.7321232 48.8722213,54.7321232 C49.4869219,54.7321232 50.1011106,54.4912485 50.5642798,54.0120862 C50.9797115,53.5822115 51.3882321,53.1334497 51.7774273,52.677961 C52.6314555,51.6788871 52.5231822,50.1690862 51.5352842,49.3055852 Z" id="Path" fill="#5E72E4"></path>
                    <path d="M56.654718,31.6598932 C55.3468633,31.6201786 54.2586269,32.6584497 54.2199761,33.9780862 C54.2052581,34.4835092 54.1744143,34.9947536 54.1285965,35.49746 C54.0091887,36.8121807 54.9670108,37.9760637 56.2678265,38.0967598 C56.3412885,38.103616 56.4142386,38.1068501 56.4868048,38.1068501 C57.694961,38.1068501 58.726885,37.1750452 58.8392538,35.9345791 C58.8937744,35.334462 58.9306334,34.7245133 58.948295,34.1210329 C58.9868178,32.801655 57.9605249,31.6993491 56.654718,31.6598932 Z" id="Path" fill="#5E72E4"></path>
                    <path d="M55.6028286,40.9307248 C54.3858416,40.4491047 53.0139957,41.0556899 52.5377722,42.2854189 C52.3556529,42.755655 52.1566399,43.2271848 51.9461085,43.6861663 C51.3970629,44.8840719 51.912705,46.305 53.0979523,46.8600986 C53.4200846,47.0109363 53.7579588,47.0822156 54.0908416,47.0822156 C54.9839046,47.0822156 55.8383167,46.5686427 56.2383905,45.6959569 C56.4887245,45.1495257 56.7260043,44.5887351 56.942679,44.0285914 C57.4190304,42.7992505 56.8190477,41.4122156 55.6028286,40.9307248 Z" id="Path" fill="#5E72E4"></path>
                    <path d="M47.5478568,12.6695975 C48.3253514,11.6082998 48.1045813,10.1111766 47.0546117,9.325423 C46.5765965,8.96747433 46.0809197,8.61987474 45.5815315,8.29155031 C44.4863839,7.57190144 43.0213666,7.88547844 42.3093991,8.99244148 C41.5975597,10.0992752 41.9076616,11.5799692 43.0025531,12.2998768 C43.4222082,12.5754209 43.8381518,12.867653 44.2398894,13.1682936 C44.663,13.484846 45.1563731,13.6377536 45.6456508,13.6377536 C46.3695206,13.6377536 47.0841757,13.3028316 47.5478568,12.6695975 Z" id="Path" fill="#5E72E4"></path>
                </g>
            </g>
        </g>
    </g>
</svg>