<?xml version="1.0" encoding="UTF-8"?>
<svg width="15px" height="20px" viewBox="0 0 15 20" version="1.1" xmlns="http://www.w3.org/2000/svg" xmlns:xlink="http://www.w3.org/1999/xlink">
    <!-- Generator: Sketch 53 (72520) - https://sketchapp.com -->
    <title>icon_history</title>
    <desc>Created with Sketch.</desc>
    <g id="Customer-2" stroke="none" stroke-width="1" fill="none" fill-rule="evenodd">
        <g id="Customer-V2-Booking-history" transform="translate(-1088.000000, -144.000000)" fill="#32325D" fill-rule="nonzero">
            <g id="icon_history" transform="translate(1088.000000, 144.000000)">
                <rect id="Rectangle" x="5.95612378" y="5.21706161" width="5.69379479" height="1"></rect>
                <rect id="Rectangle" x="5.95612378" y="6.99507109" width="5.69379479" height="1"></rect>
                <rect id="Rectangle" x="5.95612378" y="10.55109" width="5.69379479" height="1"></rect>
                <rect id="Rectangle" x="5.90530945" y="14.1071564" width="5.69379479" height="1"></rect>
                <rect id="Rectangle" x="5.90530945" y="12.3291469" width="5.69379479" height="1"></rect>
                <rect id="Rectangle" x="5.90530945" y="8.77308057" width="5.69379479" height="1"></rect>
                <rect id="Rectangle" x="5.95612378" y="15.8851659" width="5.69379479" height="1"></rect>
                <path d="M11.1559446,1.29075829 L11.1559446,0 L3.84503257,0 L3.84503257,1.29075829 L0.00762214984,1.29075829 L0.00762214984,19.9536019 L14.9934039,19.9536019 L14.9934039,1.29075829 L11.1559446,1.29075829 Z M11.1559446,4.22099526 L11.1559446,3.60085308 L12.6916124,3.60085308 L12.6916124,17.6436019 L2.30941368,17.6436019 L2.30941368,3.60085308 L3.84508143,3.60085308 L3.84508143,4.22099526 L11.1559446,4.22099526 Z M4.5779316,0.710900474 L10.4230456,0.710900474 L10.4230456,3.51009479 L4.5779316,3.51009479 L4.5779316,0.710900474 Z M14.2605049,19.2427014 L0.740521173,19.2427014 L0.740521173,2.00165877 L3.84503257,2.00165877 L3.84503257,2.88990521 L1.5764658,2.88990521 L1.5764658,18.354455 L13.4244625,18.354455 L13.4244625,2.88995261 L11.1558958,2.88995261 L11.1558958,2.00165877 L14.2605049,2.00165877 L14.2605049,19.2427014 L14.2605049,19.2427014 Z" id="Shape"></path>
                <rect id="Rectangle" x="5.71890879" y="1.7550237" width="3.56325733" height="1"></rect>
                <polygon id="Path" points="2.73469055 6.16066351 3.92662866 7.31687204 5.49864821 5.79203791 4.98039088 5.28938389 3.92662866 6.31146919 3.25294788 5.65800948"></polygon>
                <polygon id="Path" points="3.92662866 10.8375355 3.25294788 10.1840758 2.73469055 10.6867299 3.92662866 11.8429384 5.49864821 10.3181043 4.98039088 9.81545024"></polygon>
                <polygon id="Path" points="4.84221498 14.0895261 4.11664495 14.7932701 3.39112378 14.0895261 2.87291531 14.5921801 3.59843648 15.2959716 2.87291531 15.9997156 3.39112378 16.5023697 4.11664495 15.7986256 4.84221498 16.5023697 5.36042345 15.9997156 4.63490228 15.2959716 5.36042345 14.5921801"></polygon>
            </g>
        </g>
    </g>
</svg>