<?xml version="1.0" encoding="UTF-8"?>
<svg width="20px" height="11px" viewBox="0 0 20 11" version="1.1" xmlns="http://www.w3.org/2000/svg" xmlns:xlink="http://www.w3.org/1999/xlink">
    <!-- Generator: Sketch 53 (72520) - https://sketchapp.com -->
    <title>icon_one</title>
    <desc>Created with Sketch.</desc>
    <g id="Customer-2" stroke="none" stroke-width="1" fill="none" fill-rule="evenodd">
        <g id="Customer-V2-Home-book1-2" transform="translate(-230.000000, -1019.000000)" fill="#FFFFFF" fill-rule="nonzero">
            <g id="Group-2" transform="translate(209.000000, 1002.000000)">
                <g id="icon_one" transform="translate(21.000000, 17.000000)">
                    <path d="M0.000689655172,3.38833333 C-0.000689655172,2.99777778 0.3,3.00340741 0.3,3.00340741 C1.57172414,3.00340741 11.3372414,3.00340741 13.0413793,3.00481481 C13.5965517,3.00340741 13.9558621,3.00481481 13.9558621,3.00481481 C13.9558621,3.00481481 13.9558621,1.6522963 13.9558621,0.801518519 C13.9558621,-0.0506666667 14.582069,0.593925926 14.582069,0.593925926 C14.582069,0.593925926 19.2682759,4.28414815 19.7627586,4.7872963 C20.1158621,5.15181481 19.7206897,5.49803704 19.7206897,5.49803704 L14.7006897,9.823 C14.7006897,9.823 14.1027586,10.4647778 14.1041379,9.76951852 C14.1055172,9.06862963 14.1041379,7.38185185 14.1041379,7.38185185 C14.1041379,7.38185185 13.7027586,7.38185185 13.0855172,7.37903704 C11.3206897,7.38185185 1.66344828,7.37903704 0.355172414,7.37903704 C0.355172414,7.37903704 0.000689655172,7.47403704 0.000689655172,6.92655556 C0.000689655172,6.37485185 0.000689655172,3.781 0.000689655172,3.38833333 Z" id="Path"></path>
                </g>
            </g>
        </g>
    </g>
</svg>