<?xml version="1.0" encoding="UTF-8"?>
<svg width="106px" height="106px" viewBox="0 0 106 106" version="1.1" xmlns="http://www.w3.org/2000/svg" xmlns:xlink="http://www.w3.org/1999/xlink">
    <!-- Generator: Sketch 53 (72520) - https://sketchapp.com -->
    <title>icon_bg_3</title>
    <desc>Created with Sketch.</desc>
    <defs>
        <linearGradient x1="0%" y1="0%" x2="100%" y2="100%" id="linearGradient-1">
            <stop stop-color="#293E9C" offset="0%"></stop>
            <stop stop-color="#D3C0F6" offset="100%"></stop>
        </linearGradient>
    </defs>
    <g id="Customer-2" stroke="none" stroke-width="1" fill="none" fill-rule="evenodd">
        <g id="Customer-V2-Slices-Copy" transform="translate(-903.000000, -449.000000)">
            <g id="icon_bg_3" transform="translate(903.000000, 449.000000)">
                <circle id="Oval-Copy-2" fill="url(#linearGradient-1)" cx="53" cy="53" r="53"></circle>
                <path d="M80.0316056,56.9413773 C79.9802447,56.4926149 79.712786,56.0999132 79.316652,55.8905827 L79.263652,55.865452 C79.1415334,55.8138098 76.2543994,54.6003561 74.4851829,54.3493252 C74.1496984,54.3015493 73.7967293,54.3681042 73.4732654,54.531868 L67.5315282,56.6599687 C66.3723581,56.0573843 61.9774561,53.7746331 56.8003942,51.1047034 L69.0387499,44.586739 C69.3985489,44.3950829 69.6080901,44.0664507 69.5985282,43.7077169 C69.5892396,43.3492592 69.3630334,43.032502 68.9933994,42.8604533 L64.8681417,40.9372644 C64.4722808,40.7527885 63.8431107,40.6798819 63.4079097,40.7737768 L44.6073891,44.8576535 C40.7386623,42.8949735 37.5458221,41.3034546 36.2145386,40.7086027 C35.2373169,40.2719913 34.049188,40.0518906 32.6834819,40.0518906 C30.4298891,40.0518906 27.6727963,40.7066696 27.163286,41.6729587 C27.1433427,41.7099644 25.7981262,45.744132 33.5672705,50.2588207 L62.5405128,65.1834182 C62.5694715,65.1972262 63.2603839,65.5468467 63.9324458,65.6661485 C65.0697602,65.8680226 66.3013272,65.9265688 67.5681365,65.9265688 L67.9353118,65.9265688 C68.1109767,65.9265688 68.2836365,65.9265688 68.4532911,65.9265688 L68.5677602,65.9265688 L68.5677602,65.8856969 C69.3873478,65.8856969 69.9894715,65.5272393 70.0861829,65.4595797 L79.5625282,58.158145 L79.5849303,58.130805 C79.9223272,57.8358645 80.08242,57.3917968 80.0316056,56.9413773 Z" id="Shape" fill="#FFFFFF" fill-rule="nonzero" transform="translate(53.551647, 52.989230) scale(-1, 1) translate(-53.551647, -52.989230) "></path>
            </g>
        </g>
    </g>
</svg>