<?xml version="1.0" encoding="UTF-8"?>
<svg width="20px" height="20px" viewBox="0 0 20 20" version="1.1" xmlns="http://www.w3.org/2000/svg" xmlns:xlink="http://www.w3.org/1999/xlink">
    <!-- Generator: Sketch 53 (72520) - https://sketchapp.com -->
    <title>icon_payment</title>
    <desc>Created with Sketch.</desc>
    <g id="Customer-2" stroke="none" stroke-width="1" fill="none" fill-rule="evenodd">
        <g id="Customer-V2-Home-book1-1" transform="translate(-910.000000, -279.000000)" fill="#32325D" fill-rule="nonzero">
            <g id="icon_payment" transform="translate(910.000000, 279.000000)">
                <path d="M15.9466667,5.15075665 C16.2462447,5.15075665 16.3306329,4.75811861 16.0605907,4.6395092 L5.51628692,0.107811861 C4.87493671,-0.170306748 4.11966245,0.107811861 3.83274262,0.733578732 L0.140759494,8.75811861 C-0.146160338,9.3797955 0.140759494,10.1119018 0.786329114,10.3900204 L2.91291139,11.281636 C3.17873418,11.3961554 3.48253165,11.2080164 3.48253165,10.9258078 L3.48253165,7.51885481 C3.48253165,6.21415133 4.57535865,5.15484663 5.92135021,5.15484663 L15.9466667,5.15484663 L15.9466667,5.15075665 L15.9466667,5.15075665 Z" id="Path"></path>
                <path d="M18.7061603,6.26323108 L5.9171308,6.26323108 C5.20405063,6.26323108 4.62599156,6.82355828 4.62599156,7.51476483 L4.62599156,16.271411 C4.62599156,16.9626176 5.20405063,17.5229448 5.9171308,17.5229448 L7.63443038,17.5229448 C7.59223629,17.277546 7.57113924,17.0280573 7.57113924,16.7744785 C7.57113924,16.48818 7.60067511,16.2100613 7.65130802,15.9360327 L6.26734177,15.9360327 L6.26734177,11.7438037 L18.3601688,11.7438037 L18.3601688,15.9319427 L16.9719831,15.9319427 C17.022616,16.2059714 17.0521519,16.48409 17.0521519,16.7703885 C17.0521519,17.0239673 17.0310549,17.273456 16.9888608,17.5188548 L18.7061603,17.5188548 C19.4192405,17.5188548 19.9972996,16.9585276 19.9972996,16.2673211 L19.9972996,7.51476483 C19.9972996,6.82355828 19.4192405,6.26323108 18.7061603,6.26323108 Z M18.3601688,9.16302658 L6.26734177,9.16302658 L6.26734177,7.85014315 L18.3601688,7.85014315 L18.3601688,9.16302658 Z" id="Shape"></path>
                <path d="M12.3137553,13.5556646 C10.4825316,13.5556646 8.99729958,14.9953374 8.99729958,16.7703885 C8.99729958,18.5454397 10.4825316,19.9851125 12.3137553,19.9851125 C14.1449789,19.9851125 15.630211,18.5454397 15.630211,16.7703885 C15.630211,14.9953374 14.1449789,13.5556646 12.3137553,13.5556646 Z M13.2673418,18.0382822 C13.1238819,18.2100613 12.9340084,18.3245808 12.7145992,18.3818405 C12.6175527,18.4063804 12.5753586,18.4554601 12.5795781,18.5536196 C12.5837975,18.6476892 12.5795781,18.7417587 12.5795781,18.8399182 C12.5795781,18.9258078 12.5331646,18.9707975 12.4487764,18.9707975 C12.3432911,18.9748875 12.2378059,18.9748875 12.1323207,18.9707975 C12.0394937,18.9707975 11.9972996,18.9176278 11.9972996,18.8317382 C11.9972996,18.7622086 11.9972996,18.6926789 11.9972996,18.6231493 C11.9972996,18.47182 11.9888608,18.4636401 11.836962,18.4391002 C11.6428692,18.4104703 11.4529958,18.3654806 11.2757806,18.283681 C11.1365401,18.2182413 11.1196624,18.1855215 11.1618565,18.0423722 C11.1913924,17.9360327 11.2209283,17.8296933 11.2546835,17.7274438 C11.2926582,17.6047444 11.3264135,17.5924744 11.444557,17.6497342 C11.6428692,17.7478937 11.8496203,17.8051534 12.0690295,17.8296933 C12.20827,17.8460532 12.3475105,17.8337832 12.4783122,17.7765235 C12.723038,17.674274 12.7610127,17.4002454 12.5542616,17.2366462 C12.4825316,17.1793865 12.4065823,17.1384867 12.3221941,17.1057669 C12.1070042,17.0157873 11.8833755,16.9462577 11.6850633,16.8276483 C11.3559494,16.6395092 11.1491983,16.3777505 11.1745148,15.9892025 C11.1998312,15.5515746 11.4572152,15.281636 11.8707173,15.1343967 C12.0394937,15.073047 12.0437131,15.077137 12.0437131,14.9053579 C12.0437131,14.8480982 12.0437131,14.7867485 12.0437131,14.7294888 C12.0479325,14.5986094 12.0690295,14.5781595 12.2040506,14.5740695 C12.2462447,14.5740695 12.2884388,14.5740695 12.3264135,14.5740695 C12.6133333,14.5740695 12.6133333,14.5740695 12.6133333,14.8521881 C12.6133333,15.0485072 12.6133333,15.0485072 12.815865,15.077137 C12.9677637,15.1016769 13.115443,15.1425767 13.258903,15.2039264 C13.3390717,15.2366462 13.3686076,15.289816 13.3432911,15.3716155 C13.3095359,15.4902249 13.2757806,15.6129243 13.2335865,15.7274438 C13.1956118,15.8378732 13.1576371,15.8542331 13.0479325,15.8051534 C12.8243038,15.6988139 12.5922363,15.6579141 12.3475105,15.670184 C12.2842194,15.674274 12.2209283,15.682454 12.1618565,15.7069939 C11.9508861,15.7969734 11.9129114,16.0260123 12.094346,16.1650716 C12.187173,16.2346012 12.2884388,16.287771 12.3981435,16.3327607 C12.5880169,16.4063804 12.7736709,16.48 12.9551055,16.5781595 C13.5120675,16.876728 13.6681857,17.5679346 13.2673418,18.0382822 Z" id="Shape"></path>
            </g>
        </g>
    </g>
</svg>