<?xml version="1.0" encoding="UTF-8"?>
<svg width="66px" height="55px" viewBox="0 0 66 55" version="1.1" xmlns="http://www.w3.org/2000/svg" xmlns:xlink="http://www.w3.org/1999/xlink">
    <!-- Generator: Sketch 53 (72520) - https://sketchapp.com -->
    <title>icon_fromairport</title>
    <desc>Created with Sketch.</desc>
    <g id="Customer-2" stroke="none" stroke-width="1" fill="none" fill-rule="evenodd">
        <g id="Customer-V2-Home" transform="translate(-750.000000, -1135.000000)" fill-rule="nonzero">
            <g id="Group-10" transform="translate(750.000000, 1135.000000)">
                <g id="icon_fromairport">
                    <path d="M47.9032258,44.4230769 C46.1427199,44.4230769 44.7096774,45.8469332 44.7096774,47.5961538 C44.7096774,49.3453745 46.1427199,50.7692308 47.9032258,50.7692308 C49.6637318,50.7692308 51.0967742,49.3453745 51.0967742,47.5961538 C51.0967742,45.8469332 49.6637318,44.4230769 47.9032258,44.4230769 Z M47.9032258,48.6538462 C47.3169103,48.6538462 46.8387097,48.1797438 46.8387097,47.5961538 C46.8387097,47.0125639 47.3169103,46.5384615 47.9032258,46.5384615 C48.4895413,46.5384615 48.9677419,47.0125639 48.9677419,47.5961538 C48.9677419,48.1797438 48.4895413,48.6538462 47.9032258,48.6538462 Z" id="Shape" fill="#5E72E4"></path>
                    <path d="M18.0967742,44.4230769 C16.3362682,44.4230769 14.9032258,45.8469332 14.9032258,47.5961538 C14.9032258,49.3453745 16.3362682,50.7692308 18.0967742,50.7692308 C19.8572801,50.7692308 21.2903226,49.3453745 21.2903226,47.5961538 C21.2903226,45.8469332 19.8572801,44.4230769 18.0967742,44.4230769 Z M18.0967742,48.6538462 C17.5104587,48.6538462 17.0322581,48.1797438 17.0322581,47.5961538 C17.0322581,47.0125639 17.5104587,46.5384615 18.0967742,46.5384615 C18.6830897,46.5384615 19.1612903,47.0125639 19.1612903,47.5961538 C19.1612903,48.1797438 18.6830897,48.6538462 18.0967742,48.6538462 Z" id="Shape" fill="#5E72E4"></path>
                    <path d="M62.4815871,36.5730168 L48.3450415,34.0935341 C47.6968719,33.9804312 47.1069178,33.674692 46.6417118,33.212468 L41.3861833,27.9906288 C40.3814421,26.9933613 39.0445596,26.4423077 37.6229524,26.4423077 L14.9032258,26.4423077 C13.9696951,26.4423077 13.085024,26.8461727 12.4784369,27.5506122 L7.7717994,33.0064041 L6.06587078,29.6153846 L5.68434189e-14,29.6153846 L5.68434189e-14,31.7307692 L4.74977942,31.7307692 L5.81429555,33.8461538 L4.25806452,33.8461538 C1.90968365,33.8461538 5.68434189e-14,35.7435959 5.68434189e-14,38.0769231 L5.68434189e-14,46.5384615 C5.68434189e-14,48.8717887 1.90968365,50.7692308 4.25806452,50.7692308 L11.3744172,50.7692308 C11.7543788,51.5614672 12.2674048,52.2772686 12.8911448,52.8846154 L5.68434189e-14,52.8846154 L5.68434189e-14,55 L66,55 L66,52.8846154 L53.1078156,52.8846154 C53.7325952,52.2772686 54.2445817,51.5614672 54.6245433,50.7692308 L62.8064516,50.7692308 C64.5669576,50.7692308 66,49.3453745 66,47.5961538 L66,40.7392297 C66,38.6816876 64.520177,36.9304011 62.4815871,36.5730168 Z M63.7909212,40.1923077 L61.3578156,40.1923077 C60.6867754,40.1923077 60.0843467,39.8220121 59.7844316,39.2265437 L59.2433373,38.1528415 L62.1115014,38.6553486 C62.9436744,38.8015043 63.5814485,39.4140155 63.7909212,40.1923077 Z M14.0954827,28.926955 C14.2976783,28.6919697 14.5923953,28.5576923 14.9032258,28.5576923 L37.6229524,28.5576923 C38.4639617,28.5576923 39.285739,28.895968 39.8808909,29.4873047 L45.1364194,34.709144 C45.9124558,35.4802058 46.895366,35.9878775 47.9754757,36.177415 L56.6335055,37.6952655 L57.8799458,40.173199 C58.5431893,41.4901498 59.8759135,42.3076923 61.3578156,42.3076923 L63.8709677,42.3076923 L63.8709677,44.4230769 L54.6255828,44.4230769 C53.4269626,41.9260347 50.8680696,40.1923077 47.9032258,40.1923077 C45.818895,40.1923077 43.9346805,41.0491005 42.5806452,42.4249268 L42.5806452,40.8120493 L40.4516129,38.6966647 L40.4516129,33.8461538 L38.0257844,33.8461538 L36.9612682,30.6730769 L16.5213111,30.6730769 L16.2021642,31.0697115 C13.3054121,34.6657621 11.7096774,39.1852275 11.7096774,43.7914569 L11.7096774,43.8023025 C11.588568,44.003202 11.4762948,44.210299 11.3744172,44.4230769 L2.12903226,44.4230769 L2.12903226,40.1923077 L5.98062619,40.1923077 L8.22557015,35.7296519 L14.0954827,28.926955 Z M40.5368574,48.6538462 L25.4631426,48.6538462 C25.5130418,48.3067909 25.5483871,47.955604 25.5483871,47.5961538 C25.5483871,47.2367037 25.5130418,46.8855168 25.4631426,46.5384615 L40.5368574,46.5384615 C40.4869582,46.8855168 40.4516129,47.2367037 40.4516129,47.5961538 C40.4516129,47.955604 40.4869582,48.3067909 40.5368574,48.6538462 Z M38.3225806,35.9615385 L38.3225806,38.0769231 L35.1290323,38.0769231 C34.5427167,38.0769231 34.0645161,37.6028207 34.0645161,37.0192308 C34.0645161,36.4356408 34.5427167,35.9615385 35.1290323,35.9615385 L38.3225806,35.9615385 Z M35.1290323,33.8461538 C33.7432901,33.8461538 32.5722183,34.7334173 32.1314421,35.9615385 L15.6356004,35.9615385 C16.1678585,34.847553 16.8004347,33.7784987 17.5541205,32.7884615 L35.426868,32.7884615 L35.7813603,33.8461538 L35.1290323,33.8461538 Z M14.7701613,38.0769231 L32.1314421,38.0769231 C32.5722183,39.3050443 33.7432901,40.1923077 35.1290323,40.1923077 L38.9463206,40.1923077 L40.4516129,41.6879507 L40.4516129,44.4230769 L24.8191311,44.4230769 C23.620511,41.9260347 21.0616179,40.1923077 18.0967742,40.1923077 C16.5883631,40.1923077 15.1865077,40.6426532 14.0112777,41.4116492 C14.1635742,40.2780387 14.4104713,39.1599215 14.7701613,38.0769231 Z M4.25806452,35.9615385 L5.72905123,35.9615385 L4.6645351,38.0769231 L2.12903226,38.0769231 C2.12903226,36.9102595 3.08387408,35.9615385 4.25806452,35.9615385 Z M4.25806452,48.6538462 C3.08387408,48.6538462 2.12903226,47.7051251 2.12903226,46.5384615 L10.7304057,46.5384615 C10.6805066,46.8855168 10.6451613,47.2367037 10.6451613,47.5961538 C10.6451613,47.955604 10.6805066,48.3067909 10.7304057,48.6538462 L4.25806452,48.6538462 Z M12.7741935,47.5961538 C12.7741935,44.6802696 15.1620778,42.3076923 18.0967742,42.3076923 C21.0314706,42.3076923 23.4193548,44.6802696 23.4193548,47.5961538 C23.4193548,50.5120381 21.0314706,52.8846154 18.0967742,52.8846154 C15.1620778,52.8846154 12.7741935,50.5120381 12.7741935,47.5961538 Z M23.301364,52.8846154 C23.9261436,52.2772686 24.43813,51.5614672 24.8180916,50.7692308 L41.1798292,50.7692308 C41.5597908,51.5614672 42.0728169,52.2772686 42.6965569,52.8846154 L23.301364,52.8846154 Z M47.9032258,52.8846154 C44.9685294,52.8846154 42.5806452,50.5120381 42.5806452,47.5961538 C42.5806452,44.6802696 44.9685294,42.3076923 47.9032258,42.3076923 C50.8379222,42.3076923 53.2258065,44.6802696 53.2258065,47.5961538 C53.2258065,50.5120381 50.8379222,52.8846154 47.9032258,52.8846154 Z M62.8064516,48.6538462 L55.2695943,48.6538462 C55.3194934,48.3067909 55.3548387,47.955604 55.3548387,47.5961538 C55.3548387,47.2367037 55.3194934,46.8855168 55.2695943,46.5384615 L63.8709677,46.5384615 L63.8709677,47.5961538 C63.8709677,48.1797438 63.3927671,48.6538462 62.8064516,48.6538462 Z" id="Shape" fill="#5E72E4"></path>
                    <polygon id="Path" fill="#5E72E4" points="0 22.2115385 2.12903226 22.2115385 2.12903226 24.3269231 0 24.3269231"></polygon>
                    <polygon id="Path" fill="#5E72E4" points="4.25806452 22.2115385 21.2903226 22.2115385 21.2903226 24.3269231 4.25806452 24.3269231"></polygon>
                    <polygon id="Path" fill="#5E72E4" points="4.25806452 17.9807692 6.38709677 17.9807692 6.38709677 20.0961538 4.25806452 20.0961538"></polygon>
                    <polygon id="Path" fill="#5E72E4" points="8.51612903 17.9807692 25.5483871 17.9807692 25.5483871 20.0961538 8.51612903 20.0961538"></polygon>
                    <polygon id="Path" fill="#5E72E4" points="8.51612903 13.75 10.6451613 13.75 10.6451613 15.8653846 8.51612903 15.8653846"></polygon>
                    <polygon id="Path" fill="#5E72E4" points="12.7741935 13.75 29.8064516 13.75 29.8064516 15.8653846 12.7741935 15.8653846"></polygon>
                    <path d="M52.1612903,27.5 C59.7917087,27.5 66,21.3315054 66,13.75 C66,6.16849459 59.7917087,0 52.1612903,0 C44.530872,0 38.3225806,6.16849459 38.3225806,13.75 C38.3225806,21.3315054 44.530872,27.5 52.1612903,27.5 Z M43.9643083,22.0442082 C44.931105,20.7360371 47.5170268,17.9807692 52.1612903,17.9807692 C56.8081527,17.9807692 59.3925151,20.7370699 60.359312,22.0442082 C58.2448337,24.1069149 55.3517199,25.3846154 52.1612903,25.3846154 C48.9708607,25.3846154 46.0787865,24.1069149 43.9643083,22.0442082 Z M51.0967742,14.8076923 L51.0967742,14.2494085 C51.0967742,14.0862098 51.1362777,13.9224948 51.2085276,13.7773719 L52.1612903,11.8840614 L53.114053,13.7763391 C53.1863029,13.9224948 53.2258065,14.0851769 53.2258065,14.2494085 L53.2258065,14.8076923 C53.2258065,15.3912822 52.7476058,15.8653846 52.1612903,15.8653846 C51.5749748,15.8653846 51.0967742,15.3912822 51.0967742,14.8076923 Z M45.4155432,4.25607531 L46.9811302,6.95091838 L48.8253214,5.89322607 L47.2592143,3.19735017 C48.4458795,2.65146115 49.7365014,2.29201103 51.0967742,2.16909555 L51.0967742,5.28846154 L53.2258065,5.28846154 L53.2258065,2.16909555 C54.5860792,2.29201103 55.8767011,2.65146115 57.0633663,3.198383 L55.4972593,5.89477546 L57.3414504,6.95246776 L58.9070375,4.25710828 C59.994944,5.02300563 60.9456275,5.96656209 61.7164661,7.04852764 L59.004237,8.60407903 L60.0687531,10.4364483 L62.7809823,8.88038052 C63.3314326,10.0599553 63.6932018,11.3417875 63.8169103,12.6933405 L60.6774194,12.6933405 L60.6774194,14.8087251 L63.8169103,14.8087251 C63.6282289,16.8734976 62.8948147,18.7812688 61.7601279,20.3946626 C60.6431137,19.0183199 58.4641823,16.9695575 55.0226972,16.1891996 C55.2290512,15.7693247 55.3548387,15.305035 55.3548387,14.8076923 L55.3548387,14.2494085 C55.3548387,13.7592961 55.238927,13.2686674 55.0185389,12.8307166 L52.1612903,7.15440013 L49.3040417,12.8307166 C49.0836536,13.2686674 48.9677419,13.7592961 48.9677419,14.2494085 L48.9677419,14.8076923 C48.9677419,15.305035 49.0935294,15.7693247 49.2998835,16.1881667 C45.8583984,16.9685246 43.6794669,19.0172871 42.5624527,20.3931134 C41.4277659,18.7802359 40.6943517,16.8724648 40.5056704,14.8076923 L43.6451613,14.8076923 L43.6451613,12.6923077 L40.5056704,12.6923077 C40.6293788,11.3407546 40.991148,10.0584059 41.5415984,8.87934755 L44.2538275,10.4354155 L45.3183437,8.60304606 L42.6061145,7.04749481 C43.3769531,5.96656209 44.3276367,5.02197266 45.4155432,4.25607531 Z" id="Shape" fill="#F5385B"></path>
                </g>
            </g>
        </g>
    </g>
</svg>