<?xml version="1.0" encoding="UTF-8"?>
<svg width="20px" height="16px" viewBox="0 0 20 16" version="1.1" xmlns="http://www.w3.org/2000/svg" xmlns:xlink="http://www.w3.org/1999/xlink">
    <!-- Generator: Sketch 53 (72520) - https://sketchapp.com -->
    <title>icon_contact</title>
    <desc>Created with Sketch.</desc>
    <g id="Customer-2" stroke="none" stroke-width="1" fill="none" fill-rule="evenodd">
        <g id="Customer-V2-Home-book1-1" transform="translate(-629.000000, -282.000000)" fill="#32325D" fill-rule="nonzero">
            <g id="icon_contact" transform="translate(629.000000, 282.000000)">
                <path d="M9.7375,9.43507692 L9.251875,9.43507692 C9,9.43507692 8.795625,9.23446154 8.795625,8.98646154 C8.795625,8.89476923 8.833125,8.80615385 8.9,8.74215385 C9.1825,8.472 9.42,8.10830769 9.591875,7.71630769 C9.626875,7.74153846 9.664375,7.76 9.706875,7.76 C9.979375,7.76 10.300625,7.16676923 10.300625,6.76246154 C10.300625,6.35815385 10.2625,6.03015385 9.989375,6.03015385 C9.956875,6.03015385 9.923125,6.03569231 9.888125,6.04430769 C9.86875,4.94769231 9.5875,3.57969231 7.886875,3.57969231 C6.1125,3.57969231 5.905625,4.94523077 5.885625,6.04061538 C5.860625,6.03569231 5.835625,6.03015385 5.8125,6.03015385 C5.539375,6.03015385 5.501875,6.35815385 5.501875,6.76246154 C5.501875,7.16676923 5.821875,7.76 6.095,7.76 C6.12875,7.76 6.16,7.75076923 6.189375,7.73415385 C6.360625,8.12 6.595,8.47630769 6.873125,8.744 C6.94,8.808 6.9775,8.89538462 6.9775,8.98769231 C6.9775,9.23569231 6.773125,9.43692308 6.52125,9.43692308 L6.035,9.43692308 C4.99625,9.43692308 4.154375,10.2658462 4.154375,11.2886154 L4.154375,11.8018462 C4.154375,12.1243077 4.42,12.3864615 4.748125,12.3864615 L11.024375,12.3864615 C11.351875,12.3864615 11.6175,12.1243077 11.6175,11.8018462 L11.6175,11.2886154 C11.618125,10.2646154 10.77625,9.43507692 9.7375,9.43507692 Z" id="Path"></path>
                <path d="M15.368125,4.35507692 L10.105,4.35507692 C10.256875,4.68615385 10.365625,5.09353846 10.410625,5.59753846 C10.523125,5.66584615 10.6075,5.776 10.67625,5.90892308 L15.368125,5.90892308 C15.611875,5.90892308 15.808125,5.71507692 15.808125,5.47569231 L15.808125,4.78830769 C15.808125,4.54953846 15.611875,4.35507692 15.368125,4.35507692 Z" id="Path"></path>
                <path d="M15.368125,7.18646154 L10.78375,7.18646154 C10.659375,7.64923077 10.353125,8.13353846 9.92875,8.26276923 C9.91625,8.28553846 9.901875,8.30523077 9.88875,8.328 L9.88875,8.74030769 L15.3675,8.74030769 C15.610625,8.74030769 15.8075,8.54646154 15.8075,8.30646154 L15.8075,7.61969231 C15.808125,7.38030769 15.611875,7.18646154 15.368125,7.18646154 Z" id="Path"></path>
                <path d="M15.368125,10.0178462 L11.789375,10.0178462 C12.025625,10.3858462 12.164375,10.8196923 12.164375,11.2867692 L12.164375,11.5716923 L15.368125,11.5716923 C15.611875,11.5716923 15.808125,11.3778462 15.808125,11.1384615 L15.808125,10.4510769 C15.808125,10.2116923 15.611875,10.0178462 15.368125,10.0178462 Z" id="Path"></path>
                <path d="M17.259375,0.0350769231 L2.703125,0.0350769231 C1.21,0.0350769231 0,1.22646154 0,2.69661538 L0,13.2664615 C0,14.7372308 1.21,15.928 2.703125,15.928 L17.259375,15.928 C18.7525,15.928 19.961875,14.7366154 19.961875,13.2664615 L19.961875,2.69661538 C19.961875,1.22646154 18.7525,0.0350769231 17.259375,0.0350769231 Z M18.68625,13.2664615 C18.68625,14.0412308 18.04625,14.6713846 17.259375,14.6713846 L2.703125,14.6713846 C1.91625,14.6713846 1.27625,14.0412308 1.27625,13.2664615 L1.27625,2.69661538 C1.27625,1.92184615 1.91625,1.29169231 2.703125,1.29169231 L17.259375,1.29169231 C18.04625,1.29169231 18.68625,1.92184615 18.68625,2.69661538 L18.68625,13.2664615 Z" id="Shape"></path>
            </g>
        </g>
    </g>
</svg>