<?xml version="1.0" encoding="UTF-8"?>
<svg width="98px" height="98px" viewBox="0 0 98 98" version="1.1" xmlns="http://www.w3.org/2000/svg" xmlns:xlink="http://www.w3.org/1999/xlink">
    <!-- Generator: Sketch 53 (72520) - https://sketchapp.com -->
    <title>icon_bg_2</title>
    <desc>Created with Sketch.</desc>
    <defs>
        <linearGradient x1="0%" y1="50%" x2="100%" y2="50%" id="linearGradient-1">
            <stop stop-color="#F4981F" offset="0%"></stop>
            <stop stop-color="#F9D2DA" offset="100%"></stop>
        </linearGradient>
    </defs>
    <g id="Customer-2" stroke="none" stroke-width="1" fill="none" fill-rule="evenodd">
        <g id="Customer-V2-Slices-Copy" transform="translate(-907.000000, -328.000000)">
            <g id="icon_bg_2" transform="translate(907.000000, 328.000000)">
                <circle id="Oval-Copy-3" fill="url(#linearGradient-1)" cx="49" cy="49" r="49"></circle>
                <path d="M58.6757429,56.2587059 L43.3255429,56.2587059 C42.9549143,56.2587059 42.6541143,55.9688235 42.6541143,55.6116471 C42.6541143,55.2544706 42.9549143,54.9645882 43.3255429,54.9645882 L58.6757429,54.9645882 C59.0463714,54.9645882 59.3471714,55.2544706 59.3471714,55.6116471 C59.3471714,55.9688235 59.0463714,56.2587059 58.6757429,56.2587059 Z" id="Path" fill="#FFFFFF" fill-rule="nonzero"></path>
                <path d="M39.6743143,59.7787059 C37.2894,59.7787059 35.3489714,57.91 35.3489714,55.6103529 C35.3489714,53.3107059 37.2880571,51.442 39.6743143,51.442 C42.0578857,51.442 43.9983143,53.3107059 43.9983143,55.6103529 C43.9983143,57.91 42.0578857,59.7787059 39.6743143,59.7787059 Z M39.6743143,52.7374118 C38.0293143,52.7374118 36.6918286,54.0263529 36.6918286,55.6116471 C36.6918286,57.1969412 38.0293143,58.4858824 39.6743143,58.4858824 C41.3179714,58.4858824 42.6554571,57.1969412 42.6554571,55.6116471 C42.6554571,54.0263529 41.3166286,52.7374118 39.6743143,52.7374118 Z" id="Shape" fill="#FFFFFF" fill-rule="nonzero"></path>
                <path d="M62.3296571,59.7787059 C59.9447429,59.7787059 58.0043143,57.91 58.0043143,55.6103529 C58.0043143,53.3107059 59.9434,51.442 62.3296571,51.442 C64.7159143,51.442 66.655,53.3107059 66.655,55.6103529 C66.655,57.91 64.7145714,59.7787059 62.3296571,59.7787059 Z M62.3296571,52.7374118 C60.6846571,52.7374118 59.3471714,54.0263529 59.3471714,55.6116471 C59.3471714,57.1969412 60.6846571,58.4858824 62.3296571,58.4858824 C63.9746571,58.4858824 65.3121429,57.1969412 65.3121429,55.6116471 C65.3121429,54.0263529 63.9733143,52.7374118 62.3296571,52.7374118 Z" id="Shape" fill="#FFFFFF" fill-rule="nonzero"></path>
                <path d="M58.6811143,56.2587059 L43.3282286,56.2587059 C42.9576,56.2587059 42.6568,55.9688235 42.6568,55.6116471 C42.6568,55.2544706 42.9576,54.9645882 43.3282286,54.9645882 L58.6811143,54.9645882 C59.0517429,54.9645882 59.3525429,55.2544706 59.3525429,55.6116471 C59.3525429,55.9688235 59.0517429,56.2587059 58.6811143,56.2587059 Z" id="Path" fill="#FFFFFF" fill-rule="nonzero"></path>
                <path d="M69.2064286,56.2587059 L65.9795429,56.2587059 C65.6089143,56.2587059 65.3081143,55.9688235 65.3081143,55.6116471 C65.3081143,55.2544706 65.6089143,54.9645882 65.9795429,54.9645882 L69.2064286,54.9645882 C70.0376571,54.9645882 70.7346,54.39 70.8621714,53.598 L71.5779143,49.1811765 C71.6276,48.8718824 71.5483714,48.5638824 71.3509714,48.3141176 C71.1549143,48.0656471 70.8715714,47.9077647 70.5479429,47.8689412 L61.6031714,46.8181176 C61.4742571,46.8025882 61.3520571,46.7521176 61.2526857,46.6718824 L53.1673429,40.1223529 C52.6342286,39.6901176 51.9560857,39.452 51.2578,39.452 L38.6094286,39.452 C37.985,39.452 37.4116,39.7548235 37.0745429,40.2621176 L33.2944,45.9627059 C33.2098,46.0934118 33.0768571,46.1891765 32.9237714,46.2331765 L28.3580571,47.5596471 C27.6799143,47.7563529 27.2528857,48.4124706 27.3616571,49.088 L28.0008571,53.0337647 C28.1821429,54.1505882 29.1651143,54.962 30.3387714,54.962 L36.0177143,54.962 C36.3883429,54.962 36.6891429,55.2518824 36.6891429,55.6090588 C36.6891429,55.9662353 36.3883429,56.2561176 36.0177143,56.2561176 L30.3360857,56.2561176 C28.4963714,56.2561176 26.9534286,54.9852941 26.6714286,53.2330588 L26.0322286,49.2872941 C25.8214,47.9776471 26.6526286,46.7029412 27.9672857,46.3211765 L32.2966571,45.0632941 L35.9438571,39.5632941 C36.528,38.6845882 37.5244,38.1591765 38.6094286,38.1591765 L51.2604857,38.1591765 C52.273,38.1591765 53.2573143,38.5047059 54.0321429,39.1323529 L61.9644,45.5576471 L70.7117714,46.5851765 C71.3993143,46.6667059 72.0062857,47.0018824 72.4225714,47.5337647 C72.8402,48.0643529 73.0107429,48.7204706 72.9046571,49.3804706 L72.1889143,53.7972941 C71.9592857,55.2234118 70.7037143,56.2587059 69.2064286,56.2587059 Z" id="Path" fill="#FFFFFF" fill-rule="nonzero"></path>
                <path d="M54.4148571,47.3228235 L39.0149714,47.3228235 C38.6443429,47.3228235 38.3435429,47.0329412 38.3435429,46.6757647 C38.3435429,46.3185882 38.6443429,46.0287059 39.0149714,46.0287059 L54.4148571,46.0287059 C54.7854857,46.0287059 55.0862857,46.3185882 55.0862857,46.6757647 C55.0862857,47.0329412 54.7854857,47.3228235 54.4148571,47.3228235 Z" id="Path" fill="#FFFFFF" fill-rule="nonzero"></path>
            </g>
        </g>
    </g>
</svg>