<?xml version="1.0" encoding="UTF-8"?>
<svg width="56px" height="56px" viewBox="0 0 56 56" version="1.1" xmlns="http://www.w3.org/2000/svg" xmlns:xlink="http://www.w3.org/1999/xlink">
    <!-- Generator: Sketch 53 (72520) - https://sketchapp.com -->
    <title>icon_search</title>
    <desc>Created with Sketch.</desc>
    <defs>
        <circle id="path-1" cx="23" cy="23" r="23"></circle>
        <filter x="-19.6%" y="-13.0%" width="139.1%" height="139.1%" filterUnits="objectBoundingBox" id="filter-2">
            <feOffset dx="0" dy="3" in="SourceAlpha" result="shadowOffsetOuter1"></feOffset>
            <feGaussianBlur stdDeviation="2.5" in="shadowOffsetOuter1" result="shadowBlurOuter1"></feGaussianBlur>
            <feColorMatrix values="0 0 0 0 0.0549019608   0 0 0 0 0.37254902   0 0 0 0 0.764705882  0 0 0 0.4 0" type="matrix" in="shadowBlurOuter1"></feColorMatrix>
        </filter>
    </defs>
    <g id="Customer-2" stroke="none" stroke-width="1" fill="none" fill-rule="evenodd">
        <g id="Customer-V2-Home-book1-1" transform="translate(-1182.000000, -553.000000)">
            <g id="icon_search" transform="translate(1187.000000, 555.000000)">
                <g id="Oval">
                    <use fill="black" fill-opacity="1" filter="url(#filter-2)" xlink:href="#path-1"></use>
                    <use fill="#5E72E4" fill-rule="evenodd" xlink:href="#path-1"></use>
                </g>
                <path d="M29.799068,28.6410582 L26.8325437,25.2000912 C27.6281942,24.2274664 28.1067961,22.9800137 28.1067961,21.6191562 C28.1067961,18.5163603 25.6198835,16 22.5533981,16 C19.4859029,16 17,18.5163603 17,21.6191562 C17,24.7219521 19.4859029,27.2383124 22.5533981,27.2383124 C23.6943689,27.2383124 24.7545631,26.8889031 25.6360388,26.2922509 L28.5843883,29.7127845 C28.8761942,30.0529989 29.3871068,30.0856921 29.7203107,29.7914527 C30.0575534,29.4951699 30.0908738,28.9802509 29.799068,28.6410582 Z M18.5145631,21.6191562 C18.5145631,19.3653637 20.3259806,17.5324971 22.5533981,17.5324971 C24.7808155,17.5324971 26.592233,19.3653637 26.592233,21.6191562 C26.592233,23.8729487 24.7808155,25.7058153 22.5533981,25.7058153 C20.3259806,25.7058153 18.5145631,23.8729487 18.5145631,21.6191562 Z" id="Shape" fill="#FFFFFF" fill-rule="nonzero"></path>
            </g>
        </g>
    </g>
</svg>