<?xml version="1.0" encoding="UTF-8"?>
<svg width="20px" height="20px" viewBox="0 0 20 20" version="1.1" xmlns="http://www.w3.org/2000/svg" xmlns:xlink="http://www.w3.org/1999/xlink">
    <!-- Generator: Sketch 53 (72520) - https://sketchapp.com -->
    <title>icon_time</title>
    <desc>Created with Sketch.</desc>
    <g id="Customer-2" stroke="none" stroke-width="1" fill="none" fill-rule="evenodd" fill-opacity="0.5">
        <g id="Customer-V2-Home" transform="translate(-1187.000000, -602.000000)" fill="#8898AA" fill-rule="nonzero">
            <g id="Group-7" transform="translate(832.000000, 265.000000)">
                <g id="icon_time" transform="translate(355.000000, 337.000000)">
                    <path d="M9.99966667,0 C4.47706667,0 0,4.4772 0,9.99966667 C0,15.5221333 4.47706667,19.9996667 9.99966667,19.9996667 C15.5222667,19.9996667 19.9996667,15.5221333 19.9996667,9.99966667 C19.9996667,4.4772 15.5222667,0 9.99966667,0 Z M14.3228,11.9016 L10.0833333,11.9016 C10.069,11.9016 10.0556667,11.8981333 10.0414667,11.8976 C10.0272667,11.8982667 10.014,11.9016 9.9996,11.9016 C9.61766667,11.9016 9.308,11.5919333 9.308,11.21 L9.308,4.14993333 C9.308,3.768 9.61766667,3.45833333 9.9996,3.45833333 C10.3815333,3.45833333 10.6912,3.768 10.6912,4.14993333 L10.6912,10.5184 L14.3225333,10.5184 C14.7044667,10.5184 15.0141333,10.8280667 15.0141333,11.21 C15.0141333,11.5919333 14.7047333,11.9016 14.3228,11.9016 Z" id="Shape"></path>
                </g>
            </g>
        </g>
    </g>
</svg>