<?xml version="1.0" encoding="UTF-8"?>
<svg width="19px" height="19px" viewBox="0 0 19 19" version="1.1" xmlns="http://www.w3.org/2000/svg" xmlns:xlink="http://www.w3.org/1999/xlink">
    <!-- Generator: Sketch 53 (72520) - https://sketchapp.com -->
    <title>icon_question</title>
    <desc>Created with Sketch.</desc>
    <g id="Customer-2" stroke="none" stroke-width="1" fill="none" fill-rule="evenodd">
        <g id="Customer-V2-Home-book1-1" transform="translate(-1020.000000, -527.000000)" fill="#AEB5BD" fill-rule="nonzero">
            <g id="icon_question" transform="translate(1020.000000, 527.000000)">
                <circle id="Oval" cx="9.5" cy="14.0458984" r="1"></circle>
                <path d="M9.5,0 C4.24961719,0 0,4.24891211 0,9.5 C0,14.7503828 4.24891211,19 9.5,19 C14.7503828,19 19,14.7510879 19,9.5 C19,4.24961719 14.7510879,0 9.5,0 Z M9.5,17.515625 C5.06999414,17.515625 1.484375,13.9305996 1.484375,9.5 C1.484375,5.06999414 5.06940039,1.484375 9.5,1.484375 C13.9300059,1.484375 17.515625,5.06940039 17.515625,9.5 C17.515625,13.9300059 13.9305996,17.515625 9.5,17.515625 Z" id="Shape"></path>
                <path d="M9.5,4.76855469 C7.86303125,4.76855469 6.53125,6.10033594 6.53125,7.73730469 C6.53125,8.14721484 6.86352734,8.47949219 7.2734375,8.47949219 C7.68334766,8.47949219 8.015625,8.14721484 8.015625,7.73730469 C8.015625,6.91882031 8.68151562,6.25292969 9.5,6.25292969 C10.3184844,6.25292969 10.984375,6.91882031 10.984375,7.73730469 C10.984375,8.55578906 10.3184844,9.22167969 9.5,9.22167969 C9.09008984,9.22167969 8.7578125,9.55395703 8.7578125,9.96386719 L8.7578125,11.8193359 C8.7578125,12.2292461 9.09008984,12.5615234 9.5,12.5615234 C9.90991016,12.5615234 10.2421875,12.2292461 10.2421875,11.8193359 L10.2421875,10.6121309 C11.5211992,10.2817461 12.46875,9.11810742 12.46875,7.73730469 C12.46875,6.10033594 11.1369687,4.76855469 9.5,4.76855469 Z" id="Path"></path>
            </g>
        </g>
    </g>
</svg>