<?xml version="1.0" encoding="UTF-8"?>
<svg width="13px" height="14px" viewBox="0 0 13 14" version="1.1" xmlns="http://www.w3.org/2000/svg" xmlns:xlink="http://www.w3.org/1999/xlink">
    <!-- Generator: Sketch 53 (72520) - https://sketchapp.com -->
    <title>icon_name</title>
    <desc>Created with Sketch.</desc>
    <g id="Customer-2" stroke="none" stroke-width="1" fill="none" fill-rule="evenodd">
        <g id="Customer-V2-sign-up" transform="translate(-598.000000, -349.000000)" fill="#AEB5BD" fill-rule="nonzero">
            <g id="icon_name" transform="translate(598.000000, 348.000000)">
                <path d="M9.58,10.1526154 L8.803,10.1526154 C8.4,10.1526154 8.073,9.85169231 8.073,9.47969231 C8.073,9.34215385 8.133,9.20923077 8.24,9.11323077 C8.692,8.708 9.072,8.16246154 9.347,7.57446154 C9.403,7.61230769 9.463,7.64 9.531,7.64 C9.967,7.64 10.481,6.75015385 10.481,6.14369231 C10.481,5.53723077 10.42,5.04523077 9.983,5.04523077 C9.931,5.04523077 9.877,5.05353846 9.821,5.06646154 C9.79,3.42153846 9.34,1.36953846 6.619,1.36953846 C3.78,1.36953846 3.449,3.41784615 3.417,5.06092308 C3.377,5.05353846 3.337,5.04523077 3.3,5.04523077 C2.863,5.04523077 2.803,5.53723077 2.803,6.14369231 C2.803,6.75015385 3.315,7.64 3.752,7.64 C3.806,7.64 3.856,7.62615385 3.903,7.60123077 C4.177,8.18 4.552,8.71446154 4.997,9.116 C5.104,9.212 5.164,9.34307692 5.164,9.48153846 C5.164,9.85353846 4.837,10.1553846 4.434,10.1553846 L3.656,10.1553846 C1.994,10.1553846 0.647,11.3987692 0.647,12.9329231 L0.647,13.7027692 C0.647,14.1864615 1.072,14.5796923 1.597,14.5796923 L11.639,14.5796923 C12.163,14.5796923 12.588,14.1864615 12.588,13.7027692 L12.588,12.9329231 C12.589,11.3969231 11.242,10.1526154 9.58,10.1526154 Z" id="Path"></path>
            </g>
        </g>
    </g>
</svg>