<?xml version="1.0" encoding="UTF-8"?>
<svg width="62px" height="62px" viewBox="0 0 62 62" version="1.1" xmlns="http://www.w3.org/2000/svg" xmlns:xlink="http://www.w3.org/1999/xlink">
    <!-- Generator: Sketch 53 (72520) - https://sketchapp.com -->
    <title>icon_phone</title>
    <desc>Created with Sketch.</desc>
    <g id="Customer-2" stroke="none" stroke-width="1" fill="none" fill-rule="evenodd">
        <g id="Customer-V2-Home" transform="translate(-208.000000, -1402.000000)" fill-rule="nonzero">
            <g id="Group-11" transform="translate(208.000000, 1402.000000)">
                <g id="icon_phone">
                    <path d="M48.9794768,38.3910802 C47.7107004,37.0699831 46.1803207,36.363654 44.5583797,36.363654 C42.949519,36.363654 41.4060591,37.056903 40.084962,38.378 L35.9516287,42.4982532 C35.6115443,42.3151308 35.2714599,42.1450886 34.9444557,41.9750464 C34.4735696,41.7396034 34.0288439,41.5172405 33.649519,41.2817975 C29.777789,38.8227257 26.2592236,35.6180844 22.8845401,31.4716709 C21.249519,29.4050042 20.1507848,27.6653418 19.3528945,25.899519 C20.4254684,24.9185063 21.4195612,23.8982532 22.3874937,22.9172405 C22.7537384,22.5509958 23.1199831,22.1716709 23.4862278,21.8054262 C26.2330633,19.0585907 26.2330633,15.5007848 23.4862278,12.7539494 L19.9153418,9.18306329 C19.5098565,8.77757806 19.0912911,8.35901266 18.6988861,7.94044726 C17.9140759,7.12947679 17.0900253,6.29234599 16.2398143,5.50753586 C14.971038,4.25183966 13.4537384,3.58475105 11.8579578,3.58475105 C10.2621772,3.58475105 8.7187173,4.25183966 7.41070042,5.50753586 C7.39762025,5.52061603 7.39762025,5.52061603 7.38454008,5.5336962 L2.9372827,10.0201941 C1.2630211,11.6944557 0.308168776,13.734962 0.0988860759,16.1024726 C-0.215037975,19.9218819 0.90985654,23.4796878 1.77314768,25.8079578 C3.89213502,31.5239916 7.05753586,36.8214599 11.7794768,42.4982532 C17.5085907,49.3391814 24.4018397,54.7412911 32.2761013,58.5476203 C35.2845401,59.9733586 39.3001519,61.6607004 43.7866498,61.9484641 C44.0613333,61.9615443 44.349097,61.9746245 44.6107004,61.9746245 C47.6322194,61.9746245 50.1697722,60.8889705 52.1579578,58.7307426 C52.171038,58.7045823 52.1971983,58.6915021 52.2102785,58.6653418 C52.8904473,57.8412911 53.6752574,57.0957215 54.499308,56.2978312 C55.0617553,55.7615443 55.6372827,55.199097 56.19973,54.6104895 C57.4946667,53.2632321 58.1748354,51.6936118 58.1748354,50.0847511 C58.1748354,48.4628101 57.4815865,46.90627 56.1604895,45.5982532 L48.9794768,38.3910802 Z M53.6621772,52.1644979 C53.649097,52.1644979 53.649097,52.1775781 53.6621772,52.1644979 C53.1520506,52.713865 52.6288439,53.2109114 52.0663966,53.7602785 C51.2161857,54.5712489 50.3528945,55.4214599 49.5419241,56.3763122 C48.220827,57.7889705 46.6642869,58.4560591 44.6237806,58.4560591 C44.4275781,58.4560591 44.2182954,58.4560591 44.0220928,58.4429789 C40.1372827,58.1944557 36.5271561,56.6771561 33.8195612,55.3822194 C26.4161857,51.7982532 19.9153418,46.7100675 14.5132321,40.2615443 C10.0528945,34.8855949 7.07061603,29.9151308 5.09551055,24.5784219 C3.87905485,21.3214599 3.43432911,18.7839072 3.63053165,16.3902363 C3.76133333,14.8598565 4.34994093,13.5910802 5.43559494,12.5054262 L9.89593249,8.04508861 C10.5368608,7.44340084 11.2170295,7.11639662 11.8841181,7.11639662 C12.7081688,7.11639662 13.3752574,7.61344304 13.7938228,8.03200844 C13.806903,8.04508861 13.8199831,8.05816878 13.8330633,8.07124895 C14.6309536,8.81681857 15.3896034,9.58854852 16.1874937,10.4125992 C16.5929789,10.8311646 17.0115443,11.24973 17.4301097,11.6813755 L21.0009958,15.2522616 C22.3874937,16.6387595 22.3874937,17.920616 21.0009958,19.3071139 C20.6216709,19.6864388 20.2554262,20.0657637 19.8761013,20.4320084 C18.7773671,21.556903 17.7309536,22.6033165 16.5929789,23.6235696 C16.5668186,23.64973 16.5406582,23.6628101 16.5275781,23.6889705 C15.4026835,24.813865 15.6119662,25.9125992 15.8474093,26.6581688 C15.8604895,26.6974093 15.8735696,26.7366498 15.8866498,26.7758903 C16.8153418,29.0256793 18.1233586,31.1446667 20.1115443,33.6691392 L20.1246245,33.6822194 C23.7347511,38.1294768 27.5410802,41.5957215 31.7398143,44.2509958 C32.2761013,44.5910802 32.8254684,44.8657637 33.3486751,45.1273671 C33.8195612,45.3628101 34.2642869,45.585173 34.6436118,45.820616 C34.6959325,45.8467764 34.7482532,45.8860169 34.8005738,45.9121772 C35.2452996,46.1345401 35.663865,46.2391814 36.0955105,46.2391814 C37.1811646,46.2391814 37.8613333,45.5590127 38.0836962,45.3366498 L42.5571139,40.8632321 C43.0018397,40.4185063 43.7081688,39.8822194 44.5322194,39.8822194 C45.3431899,39.8822194 46.0102785,40.392346 46.4157637,40.8370717 C46.4288439,40.8501519 46.4288439,40.8501519 46.4419241,40.8632321 L53.649097,48.0704051 C54.9963544,49.4045823 54.9963544,50.778 53.6621772,52.1644979 Z" id="Shape" fill="#5E72E4"></path>
                    <path d="M33.492557,14.742135 C36.9195612,15.3176624 40.0326414,16.9396034 42.5178734,19.4248354 C45.0031055,21.9100675 46.6119662,25.0231477 47.2005738,28.4501519 C47.3444557,29.313443 48.0900253,29.9151308 48.9402363,29.9151308 C49.0448776,29.9151308 49.1364388,29.9020506 49.2410802,29.8889705 C50.2090127,29.7320084 50.8499409,28.8163966 50.6929789,27.8484641 C49.9866498,23.7020506 48.0246245,19.9218819 45.0292658,16.9265232 C42.0339072,13.9311646 38.2537384,11.9691392 34.1073249,11.2628101 C33.1393924,11.1058481 32.2368608,11.7467764 32.0668186,12.7016287 C31.8967764,13.656481 32.5246245,14.585173 33.492557,14.742135 Z" id="Path" fill="#F5385B"></path>
                    <path d="M61.9026835,27.3383376 C60.7385485,20.5104895 57.520827,14.2974093 52.5765232,9.35310549 C47.6322194,4.40880169 41.4191392,1.19108017 34.5912911,0.0269451477 C33.6364388,-0.143097046 32.7339072,0.510911392 32.563865,1.46576371 C32.406903,2.4336962 33.0478312,3.33622785 34.0157637,3.50627004 C40.1111224,4.53960338 45.6701941,7.43032068 50.0912911,11.8383376 C54.5123882,16.2594346 57.3900253,21.8185063 58.4233586,27.913865 C58.5672405,28.7771561 59.3128101,29.3788439 60.1630211,29.3788439 C60.2676624,29.3788439 60.3592236,29.3657637 60.463865,29.3526835 C61.4187173,29.2088017 62.0727257,28.2931899 61.9026835,27.3383376 Z" id="Path" fill="#F5385B"></path>
                </g>
            </g>
        </g>
    </g>
</svg>