<?xml version="1.0" encoding="UTF-8"?>
<svg width="20px" height="20px" viewBox="0 0 20 20" version="1.1" xmlns="http://www.w3.org/2000/svg" xmlns:xlink="http://www.w3.org/1999/xlink">
    <!-- Generator: Sketch 53 (72520) - https://sketchapp.com -->
    <title>icon_complete_white</title>
    <desc>Created with Sketch.</desc>
    <g id="Customer-2" stroke="none" stroke-width="1" fill="none" fill-rule="evenodd">
        <g id="Customer-V2-Home-book5" transform="translate(-1157.000000, -280.000000)" fill="#FFFFFF" fill-rule="nonzero">
            <g id="icon_complete_white" transform="translate(1157.000000, 280.000000)">
                <path d="M2.60425532,16.3914894 L2.60425532,2.18553191 L14.0774468,2.18553191 L14.0774468,14.1161702 L16.2634043,12.3106383 L16.2634043,1.09276596 C16.2634043,0.489361702 15.7744681,0 15.1710638,0 L1.51148936,0 C0.908085106,0 0.419148936,0.489361702 0.419148936,1.09276596 L0.419148936,17.4838298 C0.419148936,18.087234 0.908085106,18.5765957 1.51148936,18.5765957 L11.0468085,18.5765957 L9.50212766,16.3914894 L2.60425532,16.3914894 Z" id="Path"></path>
                <path d="M19.4097872,11.7485106 C19.2085106,11.5587234 18.8991489,11.5497872 18.687234,11.7242553 L13.6753191,15.866383 L10.3353191,13.8625532 C10.113617,13.7297872 9.82978723,13.7693617 9.65319149,13.96 C9.47787234,14.1489362 9.4587234,14.4353191 9.60808511,14.646383 L13.2276596,19.7685106 C13.3289362,19.9119149 13.493617,19.9978723 13.6689362,19.9995745 C13.6706383,19.9995745 13.6723404,19.9995745 13.6740426,19.9995745 C13.8476596,19.9995745 14.0114894,19.9174468 14.1144681,19.7761702 L19.4761702,12.4685106 C19.6378723,12.2468085 19.6102128,11.9382979 19.4097872,11.7485106 Z" id="Path"></path>
                <path d="M11.6195745,3.82468085 L5.06255319,3.82468085 C4.45914894,3.82468085 3.97021277,4.31404255 3.97021277,4.91744681 C3.97021277,5.52085106 4.45914894,6.01021277 5.06255319,6.01021277 L11.6191489,6.01021277 C12.2225532,6.01021277 12.7110638,5.52085106 12.7110638,4.91744681 C12.7110638,4.31404255 12.2229787,3.82468085 11.6195745,3.82468085 Z" id="Path"></path>
                <path d="M11.6195745,7.10255319 L5.06255319,7.10255319 C4.45914894,7.10255319 3.97021277,7.59191489 3.97021277,8.19531915 C3.97021277,8.7987234 4.45914894,9.28808511 5.06255319,9.28808511 L11.6191489,9.28808511 C12.2225532,9.28808511 12.7110638,8.79914894 12.7110638,8.19531915 C12.7123404,7.59191489 12.2229787,7.10255319 11.6195745,7.10255319 Z" id="Path"></path>
                <path d="M11.6195745,10.3808511 L5.06255319,10.3808511 C4.45914894,10.3808511 3.97021277,10.8702128 3.97021277,11.473617 C3.97021277,12.0770213 4.45914894,12.566383 5.06255319,12.566383 L11.6191489,12.566383 C12.2225532,12.566383 12.7110638,12.0770213 12.7110638,11.473617 C12.7123404,10.8702128 12.2229787,10.3808511 11.6195745,10.3808511 Z" id="Path"></path>
            </g>
        </g>
    </g>
</svg>