<?xml version="1.0" encoding="UTF-8"?>
<svg width="19px" height="19px" viewBox="0 0 19 19" version="1.1" xmlns="http://www.w3.org/2000/svg" xmlns:xlink="http://www.w3.org/1999/xlink">
    <!-- Generator: Sketch 53 (72520) - https://sketchapp.com -->
    <title>icon_phone_white</title>
    <desc>Created with Sketch.</desc>
    <g id="Customer-2" stroke="none" stroke-width="1" fill="none" fill-rule="evenodd">
        <g id="Customer-V2-Home-book1-1" transform="translate(-581.000000, -694.000000)" fill="#FFFFFF" fill-rule="nonzero">
            <g id="Group-4" transform="translate(561.000000, 681.000000)">
                <g id="icon_phone_white" transform="translate(20.000000, 13.000000)">
                    <path d="M14.4318628,12.5573805 C13.8116965,11.9451143 13.0374761,11.9451143 12.4212599,12.5573805 C11.9511975,13.0234927 11.4811351,13.489605 11.018973,13.9636175 C10.8925696,14.0939709 10.7859168,14.1216216 10.6318628,14.0347193 C10.3277048,13.868815 10.0037963,13.7345114 9.71148857,13.5528067 C8.3487027,12.6956341 7.20712266,11.5935551 6.19589605,10.3532225 C5.69423285,9.73700624 5.2478711,9.07733888 4.93581289,8.33471933 C4.87261123,8.18461538 4.88446154,8.08586279 5.00691476,7.96340956 C5.47697713,7.50914761 5.93518919,7.04303534 6.39735135,6.57692308 C7.0412183,5.92910603 7.0412183,5.17068607 6.39340125,4.51891892 C6.02604158,4.14760915 5.65868191,3.78419958 5.29132225,3.41288981 C4.91211227,3.03367983 4.53685239,2.65051975 4.15369231,2.27525988 C3.53352599,1.67089397 2.75930561,1.67089397 2.1430894,2.27920998 C1.66907692,2.74532225 1.21481497,3.22328482 0.732902287,3.68149688 C0.286540541,4.104158 0.0613846154,4.62162162 0.013983368,5.22598753 C-0.0610686071,6.20956341 0.179887734,7.13783784 0.519596674,8.04241164 C1.21481497,9.91476091 2.27344283,11.5777547 3.55722661,13.1024948 C5.29132225,15.1644491 7.36117672,16.795842 9.78259044,17.972973 C10.8728191,18.5022869 12.0025489,18.9091476 13.2310312,18.9762994 C14.0763534,19.0237006 14.8110728,18.810395 15.3996383,18.1507277 C15.8025489,17.7004158 16.2568108,17.289605 16.683422,16.8590437 C17.3154387,16.2191268 17.3193888,15.4449064 16.6913222,14.8128898 C15.9408025,14.05842 15.1863326,13.3079002 14.4318628,12.5573805 Z" id="Path"></path>
                    <path d="M13.6773929,9.40914761 L15.1349813,9.16029106 C14.9058753,7.82120582 14.2738586,6.60852391 13.3139834,5.64469854 C12.2988067,4.62952183 11.0150229,3.98960499 9.60088565,3.79209979 L9.39548025,5.25758836 C10.489659,5.41164241 11.4850852,5.90540541 12.2711559,6.69147609 C13.0137755,7.43409563 13.4996383,8.37422037 13.6773929,9.40914761 Z" id="Path"></path>
                    <path d="M15.9566029,3.07318087 C14.2738586,1.39043659 12.1447526,0.327858628 9.79444075,0 L9.58903534,1.46548857 C11.6193888,1.74989605 13.4601372,2.67027027 14.9137755,4.11995842 C16.2923617,5.4985447 17.1969356,7.24054054 17.5247942,9.15634096 L18.9823825,8.90748441 C18.5992225,6.68752599 17.5524449,4.67297297 15.9566029,3.07318087 Z" id="Path"></path>
                </g>
            </g>
        </g>
    </g>
</svg>