<?xml version="1.0" encoding="UTF-8"?>
<svg width="62px" height="62px" viewBox="0 0 62 62" version="1.1" xmlns="http://www.w3.org/2000/svg" xmlns:xlink="http://www.w3.org/1999/xlink">
    <!-- Generator: Sketch 53 (72520) - https://sketchapp.com -->
    <title>icon_driver</title>
    <desc>Created with Sketch.</desc>
    <g id="Customer-2" stroke="none" stroke-width="1" fill="none" fill-rule="evenodd">
        <g id="Customer-V2-Home" transform="translate(-750.000000, -1677.000000)" fill-rule="nonzero">
            <g id="Group-14" transform="translate(750.000000, 1677.000000)">
                <g id="icon_driver">
                    <path d="M22.765625,7.23345947 C22.765625,7.8039245 22.304809,8.26654053 21.7365637,8.26654053 C21.1678471,8.26654053 20.7070313,7.8039245 20.7070313,7.23345947 C20.7070313,6.66252133 21.1678471,6.19990543 21.7365637,6.19990543 C22.304809,6.19990543 22.765625,6.66252133 22.765625,7.23345947 Z" id="Path" fill="#5E72E4"></path>
                    <path d="M18.6484374,7.23345947 C18.6484374,7.8039245 18.1876216,8.26654053 17.618905,8.26654053 C17.0506597,8.26654053 16.5898437,7.8039245 16.5898437,7.23345947 C16.5898437,6.66252133 17.0506597,6.19990543 17.618905,6.19990543 C18.1876216,6.19990543 18.6484374,6.66252133 18.6484374,7.23345947 Z" id="Path" fill="#5E72E4"></path>
                    <path d="M20.7070313,9.30009457 C20.7070313,9.87055972 20.2462153,10.3331756 19.6774987,10.3331756 C19.1092534,10.3331756 18.6484374,9.87055972 18.6484374,9.30009457 C18.6484374,8.72915655 19.1092534,8.26654053 19.6774987,8.26654053 C20.2462153,8.26654053 20.7070313,8.72915655 20.7070313,9.30009457 Z" id="Path" fill="#5E72E4"></path>
                    <path d="M16.5898437,9.30009457 C16.5898437,9.87055972 16.1290279,10.3331756 15.5603113,10.3331756 C14.9920658,10.3331756 14.53125,9.87055972 14.53125,9.30009457 C14.53125,8.72915655 14.9920658,8.26654053 15.5603113,8.26654053 C16.1290279,8.26654053 16.5898437,8.72915655 16.5898437,9.30009457 Z" id="Path" fill="#5E72E4"></path>
                    <path d="M14.53125,7.23345947 C14.53125,7.8039245 14.0704342,8.26654053 13.5017176,8.26654053 C12.9334721,8.26654053 12.4726563,7.8039245 12.4726563,7.23345947 C12.4726563,6.66252133 12.9334721,6.19990543 13.5017176,6.19990543 C14.0704342,6.19990543 14.53125,6.66252133 14.53125,7.23345947 Z" id="Path" fill="#5E72E4"></path>
                    <path d="M12.4726563,9.30009457 C12.4726563,9.87055972 12.0118403,10.3331756 11.4431238,10.3331756 C10.8748784,10.3331756 10.4140626,9.87055972 10.4140626,9.30009457 C10.4140626,8.72915655 10.8748784,8.26654053 11.4431238,8.26654053 C12.0118403,8.26654053 12.4726563,8.72915655 12.4726563,9.30009457 Z" id="Path" fill="#5E72E4"></path>
                    <path d="M33.0585937,9.30009457 C33.0585937,9.87055972 32.5977779,10.3331756 32.0295324,10.3331756 C31.4608158,10.3331756 31,9.87055972 31,9.30009457 C31,8.72915655 31.4608158,8.26654053 32.0295324,8.26654053 C32.5977779,8.26654053 33.0585937,8.72915655 33.0585937,9.30009457 Z" id="Path" fill="#5E72E4"></path>
                    <path d="M24.8242187,9.30009457 C24.8242187,9.87055972 24.3634029,10.3331756 23.7951574,10.3331756 C23.226441,10.3331756 22.765625,9.87055972 22.765625,9.30009457 C22.765625,8.72915655 23.226441,8.26654053 23.7951574,8.26654053 C24.3634029,8.26654053 24.8242187,8.72915655 24.8242187,9.30009457 Z" id="Path" fill="#5E72E4"></path>
                    <path d="M26.8828126,7.23345947 C26.8828126,7.8039245 26.4219966,8.26654053 25.8537513,8.26654053 C25.2850347,8.26654053 24.8242187,7.8039245 24.8242187,7.23345947 C24.8242187,6.66252133 25.2850347,6.19990543 25.8537513,6.19990543 C26.4219966,6.19990543 26.8828126,6.66252133 26.8828126,7.23345947 Z" id="Path" fill="#5E72E4"></path>
                    <path d="M28.9414063,9.30009457 C28.9414063,9.87055972 28.4805903,10.3331756 27.912345,10.3331756 C27.3436284,10.3331756 26.8828126,9.87055972 26.8828126,9.30009457 C26.8828126,8.72915655 27.3436284,8.26654053 27.912345,8.26654053 C28.4805903,8.26654053 28.9414063,8.72915655 28.9414063,9.30009457 Z" id="Path" fill="#5E72E4"></path>
                    <path d="M31,7.23345947 C31,7.8039245 30.5391842,8.26654053 29.9709387,8.26654053 C29.4022221,8.26654053 28.9414063,7.8039245 28.9414063,7.23345947 C28.9414063,6.66252133 29.4022221,6.19990543 29.9709387,6.19990543 C30.5391842,6.19990543 31,6.66252133 31,7.23345947 Z" id="Path" fill="#5E72E4"></path>
                    <path d="M11.4431238,55.8000946 L6.296875,55.8000946 C5.72815841,55.8000946 5.26734256,56.2627106 5.26734256,56.8331756 C5.26734256,57.4041138 5.72815841,57.8667298 6.296875,57.8667298 L11.4431238,57.8667298 C12.0118403,57.8667298 12.4726563,57.4041138 12.4726563,56.8331756 C12.4726563,56.2627106 12.0118403,55.8000946 11.4431238,55.8000946 Z" id="Path" fill="#5E72E4"></path>
                    <path d="M48.4982824,35.1332702 C42.5962579,35.1422577 37.3944097,39.0267181 35.6887312,44.6992035 C35.1577091,44.4428253 34.6101958,44.2228698 34.0494893,44.0412292 C34.0476046,43.9939271 34.0424215,43.9470978 34.0339403,43.9007415 C33.9382904,43.6164551 33.7243738,43.3879852 33.44779,43.2749329 L29.0771067,41.4859619 C28.1667832,41.1174774 27.1240577,41.446228 26.5873815,42.2711792 L25.8537513,43.3974456 L25.8537513,39.8100433 C31.4650566,38.6071472 35.9851046,34.4431305 37.6596851,28.9333649 L39.2348462,28.9333649 C40.9391112,28.9314728 42.3206164,27.544571 42.3225013,25.8331756 C42.3206164,24.5224304 41.4951057,23.355011 40.2624939,22.9217224 C40.2639074,22.5981751 40.2639074,22.2944946 40.2639074,22.2169189 C40.2620227,20.7642669 40.0820313,19.3177643 39.7267601,17.9100495 C39.793668,17.5623779 39.7682241,17.2033539 39.6532557,16.8684539 C41.0177985,15.9659271 43.3520337,14.0326843 43.3520337,11.3667298 C43.3520337,3.82438657 36.079341,0 21.7365637,0 C7.39331533,0 0.120622568,3.82438657 0.120622568,11.3667298 C0.120622568,14.0322113 2.45203064,15.963089 3.8236412,16.869873 C3.70631682,17.2038268 3.67993063,17.5628509 3.74636737,17.9105225 C3.39156742,19.3182373 3.21110472,20.7647399 3.20874872,22.2169189 C3.20874872,22.2944946 3.20874872,22.596756 3.2101623,22.9193573 C2.7795021,23.0659943 2.38889233,23.3110199 2.06895978,23.6350403 C1.47715531,24.2116546 1.14544325,25.0053864 1.150155,25.8331756 C1.15203973,27.544571 2.53354508,28.9314728 4.23781001,28.9333649 L5.81202885,28.9333649 C7.48660928,34.4431305 12.0071286,38.6076203 17.618905,39.8100433 L17.618905,43.3964997 L16.8852748,42.2702331 C16.349541,41.4443359 15.3058731,41.1155853 14.3964919,41.4864349 L10.0248662,43.2754059 C9.74828244,43.3884583 9.53436591,43.6169281 9.43871595,43.9012145 C9.43023474,43.9470978 9.42505171,43.9939271 9.42316698,44.0407562 C3.86463394,45.7975617 0.0937652296,50.9833069 0.120622568,56.8331756 L0.120622568,58.8998109 C0.122507296,60.6112061 1.50401265,61.9981079 3.20874872,62 L40.2639074,62 C41.2609284,61.9957428 42.1943398,61.5066375 42.7677681,60.6878356 C47.7293136,63.0529479 53.6266263,62.1324463 57.6387403,58.3671875 C61.6508542,54.6014557 62.9616822,48.7558441 60.9440814,43.6278076 C58.9264804,38.4992982 53.9908499,35.1309051 48.4982824,35.1332702 L48.4982824,35.1332702 Z M28.2982429,43.3988647 L31.5682454,44.7370453 L26.5270702,53.3365936 L23.177438,51.2803649 L28.2982429,43.3988647 Z M5.26734256,22.7334595 C5.26734256,22.4884339 5.26734256,22.2784118 5.26734256,22.2169189 C5.26969844,21.41893 5.33330803,20.6223602 5.45770005,19.8338317 C5.71355186,19.9615479 5.97694246,20.0741273 6.24504505,20.1725159 C6.13573085,20.4052429 6.02641665,20.6374969 5.91992947,20.8839417 C5.91144814,20.9019165 5.91427529,20.9232025 5.90767868,20.9416504 C5.90061105,20.9605713 5.8845908,20.975235 5.87846547,20.9955749 C5.73098556,21.480423 5.60847826,21.9728394 5.51047243,22.469986 C5.49445218,22.5579681 5.488798,22.6454772 5.47419133,22.7334595 L5.26734256,22.7334595 Z M7.96627253,18.5505218 C6.17531001,18.0812835 5.81909661,17.6233978 5.76585296,17.5354157 C5.79789333,17.4677734 5.84312679,17.4072266 5.89825517,17.3566131 C5.9175736,17.3405304 5.97694246,17.2823486 5.99484743,17.2639007 C6.01463701,17.2440338 6.02123361,17.2184906 6.03913847,17.1976776 C6.05421629,17.1801758 6.07636187,17.1716614 6.09049739,17.1527405 C6.11876818,17.1167907 9.22008755,13.4333649 21.7365637,13.4333649 C34.2370198,13.4333649 37.3628405,17.1309814 37.3816877,17.1532135 C37.3958233,17.1721344 37.41844,17.1806488 37.4335178,17.1986237 C37.4509515,17.2194367 37.457548,17.2449798 37.4768664,17.2643737 C37.4938291,17.2814026 37.5541404,17.3410034 37.5734588,17.3575592 C37.6229329,17.4067536 37.6691086,17.4602051 37.7110439,17.5169678 L37.7020914,17.5420379 C37.6365971,17.6437378 37.2591804,18.0950013 35.5167497,18.5509948 C32.7612779,19.269043 28.1253192,19.6332702 21.7365637,19.6332702 C15.3110561,19.6332702 10.6793379,19.269043 7.96627253,18.5505218 Z M37.9979937,22.7334595 C37.9824447,22.638382 37.9763194,22.5461426 37.9588855,22.4510651 C37.8575814,21.945404 37.7350742,21.4548797 37.5941908,20.9955749 C37.5880655,20.975235 37.5725164,20.9615173 37.5649775,20.9416504 C37.5579098,20.9222565 37.561208,20.9019165 37.5527268,20.8839417 C37.4490668,20.6445923 37.3270306,20.4156494 37.216774,20.1791382 C37.4891172,20.0798034 37.7558061,19.965805 38.0154274,19.8366699 C38.1393482,20.6237793 38.2029578,21.4198761 38.2053137,22.2169189 L38.2053137,22.7334595 L37.9979937,22.7334595 Z M39.2348462,26.8667298 L38.0851623,26.8667298 C38.0936436,26.8019256 38.1096638,26.7390137 38.1167315,26.6742096 C38.1746869,26.1505737 38.2039001,25.6245728 38.2053137,25.0976257 C38.2053137,25.0001831 38.1935342,24.8984832 38.1911783,24.8000946 L39.2348462,24.8000946 C39.5123723,24.7996216 39.7776477,24.9140931 39.9684764,25.1170197 C40.1597763,25.3052826 40.2662633,25.5640259 40.2639074,25.8331756 C40.2634363,26.4041138 39.8030916,26.8662567 39.2348462,26.8667298 Z M2.17921629,11.3667298 C2.17921629,5.1961517 8.7592717,2.0666351 21.7365637,2.0666351 C34.7133846,2.0666351 41.29344,5.1961517 41.29344,11.3667298 C41.29344,13.1519165 39.3432181,14.6192321 38.3551495,15.248825 C36.8261642,13.9834899 32.3772647,11.3667298 21.7365637,11.3667298 C11.0953915,11.3667298 6.64837676,13.982071 5.11844908,15.248825 C4.11954344,14.6130829 2.17921629,13.1467132 2.17921629,11.3667298 Z M4.23781001,26.8667298 C3.66956469,26.8662567 3.20922,26.4041138 3.20874872,25.8331756 C3.20827757,25.5545654 3.32230365,25.2882538 3.52444066,25.0966797 C3.7152693,24.9027405 3.97677529,24.7953644 4.24817607,24.8000946 L5.28100681,24.8000946 C5.27912208,24.8984832 5.26734256,24.9997101 5.26734256,25.0976257 C5.26875614,25.6264648 5.29844051,26.1543579 5.35592476,26.6798859 C5.36299252,26.7432708 5.37854149,26.8038177 5.38655156,26.8667298 L4.23781001,26.8667298 Z M7.40226781,26.4537811 C7.35279362,26.0034637 7.32734986,25.5507812 7.32593628,25.0976257 C7.32782101,24.3474121 7.39661351,23.5986175 7.53184275,22.8607025 C7.61429961,22.4477539 7.71701721,22.0385895 7.83528389,21.6440887 C7.97334016,21.3290558 8.11469486,21.0286865 8.25793416,20.7363587 C12.7091895,21.4960327 17.2231122,21.8191071 21.7365637,21.6999054 C26.2500152,21.8162689 30.764409,21.4931946 35.2161357,20.7363587 C35.3720969,21.058014 35.5153362,21.3650055 35.6340741,21.6365204 L35.6369011,21.6412506 C35.7546966,22.0362243 35.8578855,22.4463348 35.9375152,22.8413086 C36.0746291,23.585846 36.1443641,24.3407897 36.14672,25.0976257 C36.1457776,25.5488892 36.1198625,25.9996795 36.0703885,26.4481048 C35.3155551,33.1664429 29.1524958,38.2334595 21.7365637,38.2334595 C14.3201605,38.2334595 8.15710117,33.1664429 7.40226781,26.4537811 Z M19.6774987,40.1685944 C20.3607125,40.2518463 21.048167,40.2958374 21.7365637,40.3000946 C22.4244893,40.2958374 23.1119437,40.2518463 23.7951574,40.1685944 L23.7951574,46.5577087 L21.7365637,49.7184448 L19.6774987,46.5572357 L19.6774987,40.1685944 Z M15.1626338,43.4012298 L20.2938048,51.2803649 L16.9455861,53.3365936 L11.9044108,44.7370453 L15.1626338,43.4012298 Z M2.17921629,58.8998109 L2.17921629,56.8331756 C2.15707071,51.8144074 5.43791035,47.383606 10.2317151,45.9588623 L15.702137,55.2897034 C15.8420781,55.5290527 16.0720149,55.7012329 16.3405885,55.768402 C16.4216318,55.7892151 16.5055022,55.8000946 16.5898437,55.8000946 C16.7792589,55.8000946 16.9649045,55.7475892 17.1265199,55.6487274 L20.7070313,53.449646 L20.7070313,59.9333649 L3.20874872,59.9333649 C2.6405034,59.9328919 2.17968744,59.4707489 2.17921629,58.8998109 L2.17921629,58.8998109 Z M40.2639074,59.9333649 L22.765625,59.9333649 L22.765625,53.449646 L26.3461363,55.6487274 C26.5077516,55.7475892 26.6933974,55.8000946 26.8828126,55.8000946 C26.967154,55.8000946 27.0505532,55.7896881 27.1320678,55.7688752 C27.4001702,55.702179 27.6305782,55.5299987 27.7705192,55.2906494 L33.2414123,45.9579163 C33.9364056,46.1669922 34.6087823,46.4456024 35.2486472,46.7890168 C34.535749,51.8200836 36.7521887,56.8170929 40.9537177,59.6514435 C40.7676009,59.8297729 40.5211728,59.9309997 40.2639074,59.9333649 Z M48.4982824,59.9333649 C42.2452273,59.9333649 37.1762524,54.8441162 37.1762524,48.5666351 C37.1762524,42.289154 42.2452273,37.1999054 48.4982824,37.1999054 C54.7518087,37.1999054 59.8207837,42.289154 59.8207837,48.5666351 C59.813716,54.841278 54.7485104,59.9262695 48.4982824,59.9333649 Z" id="Shape" fill="#5E72E4"></path>
                    <path d="M56.7086271,44.2744294 C56.674702,43.9967651 56.5286357,43.7455902 56.3048243,43.5795593 C54.6029152,40.8819123 51.6387098,39.2523499 48.4577609,39.2665405 C45.2772829,39.2812043 42.327213,40.9367829 40.6498054,43.6495667 C40.464631,43.8018799 40.340239,44.015686 40.2992461,44.2521973 C38.8838157,46.9441681 38.8800462,50.1635589 40.28888,52.858841 C40.322334,53.1365052 40.4684004,53.38768 40.692683,53.5541839 C42.3945921,56.2518311 45.3587974,57.8809204 48.5392753,57.8667298 C51.7202244,57.8525391 54.6698231,56.1964875 56.3477018,53.4837036 C56.5324052,53.3313903 56.6567972,53.1175843 56.6982612,52.8810729 C58.1136916,50.1891022 58.1174611,46.9701843 56.7086271,44.2744294 L56.7086271,44.2744294 Z M48.4982824,49.6001891 C44.8673547,49.6001891 42.8365606,50.269043 41.702897,50.9487762 C41.1567972,49.4081421 41.1567972,47.7256012 41.702897,46.1849671 C42.8365606,46.8647003 44.8673547,47.533554 48.4982824,47.533554 C52.1296814,47.533554 54.1604754,46.8647003 55.293668,46.1849671 C55.840239,47.7256012 55.840239,49.4081421 55.293668,50.9487762 C54.1604754,50.269043 52.1296814,49.6001891 48.4982824,49.6001891 Z M48.4982824,41.3331756 C50.8146127,41.3355407 52.9881748,42.457077 54.338111,44.3468018 C53.6548972,44.7952271 52.0434551,45.4669189 48.4982824,45.4669189 C44.9309643,45.4669189 43.3171662,44.7848206 42.6513862,44.3572083 C44.00038,42.4613343 46.1777116,41.3355407 48.4982824,41.3331756 L48.4982824,41.3331756 Z M42.6589251,52.7869416 C43.2719327,52.3843994 44.635062,51.8040008 47.4692212,51.6885833 L47.4692212,55.7173157 C45.536433,55.4358673 43.8001277,54.3781891 42.6589251,52.7869416 L42.6589251,52.7869416 Z M49.5278149,55.7173157 L49.5278149,51.6890563 C51.1990971,51.6299286 52.8567151,52.0078735 54.3390534,52.7855225 C53.1978508,54.377243 51.4610743,55.4353942 49.5278149,55.7173157 L49.5278149,55.7173157 Z" id="Shape" fill="#F5385B"></path>
                </g>
            </g>
        </g>
    </g>
</svg>