<?xml version="1.0" encoding="UTF-8"?>
<svg width="16px" height="16px" viewBox="0 0 16 16" version="1.1" xmlns="http://www.w3.org/2000/svg" xmlns:xlink="http://www.w3.org/1999/xlink">
    <!-- Generator: Sketch 53 (72520) - https://sketchapp.com -->
    <title>icon_logout</title>
    <desc>Created with Sketch.</desc>
    <g id="Customer-2" stroke="none" stroke-width="1" fill="none" fill-rule="evenodd">
        <g id="Customer-V2-Booking-history" transform="translate(-1087.000000, -194.000000)" fill="#32325D" fill-rule="nonzero">
            <g id="icon_logout" transform="translate(1087.000000, 194.000000)">
                <path d="M7.32587826,15.0576271 L3.05109565,15.0576271 C1.88935652,15.0576271 0.946747826,14.1355932 0.946747826,13.0067797 L0.946747826,2.96610169 C0.946747826,1.83389831 1.89283478,0.915254237 3.05109565,0.915254237 L7.39544348,0.915254237 C7.65631304,0.915254237 7.8650087,0.711864407 7.8650087,0.457627119 C7.8650087,0.203389831 7.65631304,0 7.39544348,0 L3.05109565,0 C1.37109565,0 0.0076173913,1.33220339 0.0076173913,2.96610169 L0.0076173913,13.0067797 C0.0076173913,14.6440678 1.37457391,15.9728814 3.05109565,15.9728814 L7.32587826,15.9728814 C7.58674783,15.9728814 7.79544348,15.7694915 7.79544348,15.5152542 C7.79544348,15.2610169 7.58326957,15.0576271 7.32587826,15.0576271 Z" id="Shape"></path>
                <path d="M15.0615304,7.66440678 L12.0771826,4.7559322 C11.8928348,4.57627119 11.5971826,4.57627119 11.4128348,4.7559322 C11.228487,4.93559322 11.228487,5.22372881 11.4128348,5.40338983 L13.5971826,7.53220339 L4.07022609,7.53220339 C3.80935652,7.53220339 3.60066087,7.73559322 3.60066087,7.98983051 C3.60066087,8.2440678 3.80935652,8.44745763 4.07022609,8.44745763 L13.5971826,8.44745763 L11.4128348,10.5762712 C11.228487,10.7559322 11.228487,11.0440678 11.4128348,11.2237288 C11.5032696,11.3118644 11.6250087,11.359322 11.7432696,11.359322 C11.8615304,11.359322 11.9832696,11.3152542 12.0737043,11.2237288 L15.0580522,8.31525424 C15.2458783,8.13220339 15.2458783,7.84067797 15.0615304,7.66440678 Z" id="Shape"></path>
            </g>
        </g>
    </g>
</svg>