<?xml version="1.0" encoding="UTF-8"?>
<svg width="19px" height="19px" viewBox="0 0 19 19" version="1.1" xmlns="http://www.w3.org/2000/svg" xmlns:xlink="http://www.w3.org/1999/xlink">
    <!-- Generator: Sketch 53 (72520) - https://sketchapp.com -->
    <title>icon_again</title>
    <desc>Created with Sketch.</desc>
    <g id="Customer-2" stroke="none" stroke-width="1" fill="none" fill-rule="evenodd">
        <g id="Customer-V2-Home-book5" transform="translate(-932.000000, -2817.000000)" fill="#FFFFFF" fill-rule="nonzero">
            <g id="icon_again" transform="translate(932.000000, 2817.000000)">
                <path d="M18.4982961,0.852489749 C18.1605809,0.712694761 17.8723349,0.770170843 17.6332984,1.0255672 L16.0269112,2.61974943 C15.145467,1.78768793 14.1384237,1.14311617 13.0056948,0.685904328 C11.8729658,0.228735763 10.7010683,0.000129840547 9.49008884,0.000129840547 C8.20501367,0.000129840547 6.9775877,0.251501139 5.80781093,0.753940774 C4.63794761,1.25642369 3.6287836,1.93181093 2.78031891,2.78031891 C1.93181093,3.62891344 1.25625057,4.63794761 0.753767654,5.80772437 C0.251328018,6.9775877 0,8.20484055 0,9.49008884 C0,10.7749476 0.251328018,12.0025034 0.753810934,13.1723235 C1.25642369,14.3422301 1.93181093,15.3513508 2.78036219,16.1998588 C3.62882688,17.0481071 4.63799089,17.7236241 5.80785421,18.2261503 C6.97763098,18.7286765 8.20505695,18.9800478 9.49013212,18.9800478 C10.9069522,18.9800478 12.254221,18.6814579 13.5308998,18.0841481 C14.8076651,17.4870979 15.8950797,16.6446492 16.7932301,15.5571913 C16.8590159,15.4748292 16.889918,15.382123 16.8856765,15.2791595 C16.8818246,15.1762392 16.8424396,15.0917995 16.768344,15.0258838 L15.0757426,13.3206879 C14.9848109,13.2466355 14.8821503,13.209631 14.7667654,13.209631 C14.6349772,13.2260774 14.5403235,13.2756765 14.4825877,13.3580387 C13.8812096,14.1408041 13.1439317,14.7461207 12.2706674,15.1748109 C11.3975763,15.6030251 10.4708178,15.8170456 9.49047836,15.8170456 C8.63387699,15.8170456 7.81622779,15.6502437 7.03774715,15.3165535 C6.25917995,14.9830364 5.58565376,14.5320137 5.01734169,13.9635718 C4.44907289,13.3950866 3.99805011,12.72182 3.66435991,11.9431663 C3.33075626,11.1646856 3.16391116,10.3472528 3.16391116,9.49043508 C3.16391116,8.63370387 3.3308861,7.81588155 3.66435991,7.03757403 C3.99792027,6.25917995 4.44889977,5.58565376 5.01734169,5.01734169 C5.58582688,4.44889977 6.25917995,3.99787699 7.03774715,3.66418679 C7.81605467,3.33062642 8.63387699,3.16373804 9.49047836,3.16373804 C11.1463349,3.16373804 12.5839294,3.72806834 13.8031754,4.85668565 L12.0975467,6.56166515 C11.8420638,6.80883827 11.7845877,7.09310251 11.9243827,7.41432802 C12.0646538,7.74386333 12.307672,7.9085877 12.6538269,7.9085877 L18.1896219,7.9085877 C18.4038155,7.9085877 18.5890979,7.83038041 18.7456856,7.67383599 C18.9020569,7.51733485 18.9802642,7.33200911 18.9802642,7.11781549 L18.9802642,1.58189066 C18.9801777,1.23599544 18.8199544,0.992977221 18.4982961,0.852489749 Z" id="Path"></path>
            </g>
        </g>
    </g>
</svg>