<?xml version="1.0" encoding="UTF-8"?>
<svg width="62px" height="62px" viewBox="0 0 62 62" version="1.1" xmlns="http://www.w3.org/2000/svg" xmlns:xlink="http://www.w3.org/1999/xlink">
    <!-- Generator: Sketch 53 (72520) - https://sketchapp.com -->
    <title>icon_quality</title>
    <desc>Created with Sketch.</desc>
    <g id="Customer-2" stroke="none" stroke-width="1" fill="none" fill-rule="evenodd">
        <g id="Customer-V2-Home" transform="translate(-750.000000, -1402.000000)" fill-rule="nonzero">
            <g id="Group-12" transform="translate(750.000000, 1402.000000)">
                <g id="icon_quality">
                    <path d="M37.8282667,27.4071 L45.9006667,33.1534667 C46.2594031,33.4088839 46.7405969,33.4088839 47.0993333,33.1534667 L55.1717333,27.4071 C56.8533885,26.2160359 57.8569351,24.2866712 57.8666667,22.2259667 L57.8666667,9.99956667 C57.8672774,9.58813361 57.6237519,9.21553962 57.2466667,9.05096667 L46.9133333,4.58696667 C46.6521592,4.47433404 46.3561075,4.47433404 46.0949333,4.58696667 L35.7616,9.05096667 C35.3845148,9.21553962 35.1409893,9.58813361 35.1416,9.99956667 L35.1416,22.2259667 C35.1495985,24.2851256 36.1498749,26.2141202 37.8282667,27.4071 Z M37.2,10.6784667 L46.5,6.6619 L55.8,10.6784667 L55.8,22.2259667 C55.7924539,23.6206785 55.1115893,24.9258294 53.9720333,25.73 L46.5,31.0434 L39.0279667,25.7238 C37.8897858,24.9212477 37.2090294,23.6186132 37.2,22.2259667 L37.2,10.6784667 Z" id="Shape" fill="#5E72E4"></path>
                    <path d="M43.8133333,24.5933333 C44.2597786,24.9283718 44.8916028,24.8483072 45.2403667,24.4125 L53.5070333,14.0791667 C53.8637173,13.6334545 53.7915455,12.9829839 53.3458333,12.6263 C52.9001211,12.2696161 52.2496506,12.3417878 51.8929667,12.7875 L44.2463,22.3396333 L40.92,19.84 C40.6246604,19.6184953 40.2335842,19.5713784 39.8940857,19.7163976 C39.5545872,19.8614168 39.3182446,20.1765403 39.2740857,20.5430643 C39.2299268,20.9095881 39.3846604,21.2718286 39.68,21.4933333 L43.8133333,24.5933333 Z" id="Shape" fill="#F5385B"></path>
                    <path d="M2.06666667,54.7666667 L3.1,54.7666667 L3.1,58.9 C3.1,60.6120827 4.48791727,62 6.2,62 L12.4,62 C14.1120827,62 15.5,60.6120827 15.5,58.9 L15.5,54.7666667 L40.3,54.7666667 L40.3,58.9 C40.3,60.6120827 41.6879173,62 43.4,62 L49.6,62 C51.3120827,62 52.7,60.6120827 52.7,58.9 L52.7,54.7666667 L53.7333333,54.7666667 C54.8747218,54.7666667 55.8,53.8413885 55.8,52.7 L55.8,37.2 C55.8038411,35.7024292 55.1507951,34.2784943 54.0133667,33.3043333 L57.5680333,30.7747333 C60.3383755,28.8073447 61.9888303,25.6238027 62,22.2259667 L62,7.28293333 C62.0006107,6.87150028 61.7570852,6.49890629 61.38,6.33433333 L46.9133333,0.0847333333 C46.6521592,-0.0278992967 46.3561075,-0.0278992967 46.0949333,0.0847333333 L31.62,6.33433333 C31.2429148,6.49890629 30.9993893,6.87150028 31,7.28293333 L31,11.3666667 L15.3656667,11.3666667 C13.1748862,11.3674083 11.2227486,12.7497238 10.4945333,14.8159333 L4.4082,32.1098 C1.88149867,32.4816504 0.00705474074,34.6460927 0,37.2 L0,52.7 C2.58597907e-17,53.8413885 0.925278183,54.7666667 2.06666667,54.7666667 Z M13.4333333,58.9 C13.4333333,59.4706942 12.9706942,59.9333333 12.4,59.9333333 L6.2,59.9333333 C5.62930576,59.9333333 5.16666667,59.4706942 5.16666667,58.9 L5.16666667,54.7666667 L13.4333333,54.7666667 L13.4333333,58.9 Z M9.3,52.7 L7.23333333,52.7 L7.23333333,50.6333333 L9.3,50.6333333 L9.3,52.7 Z M50.6333333,58.9 C50.6333333,59.4706942 50.1706942,59.9333333 49.6,59.9333333 L43.4,59.9333333 C42.8293058,59.9333333 42.3666667,59.4706942 42.3666667,58.9 L42.3666667,54.7666667 L50.6333333,54.7666667 L50.6333333,58.9 Z M48.5666667,52.7 L46.5,52.7 L46.5,50.6333333 L48.5666667,50.6333333 L48.5666667,52.7 Z M33.0666667,7.96183333 L46.5,2.15863333 L59.9333333,7.96183333 L59.9333333,22.2218333 C59.9231013,24.9514224 58.5958417,27.508196 56.3693667,29.0873 L46.5,36.1170667 L36.6306333,29.0904 C34.4044542,27.5115078 33.0772318,24.9551904 33.0666667,22.2259667 L33.0666667,7.96183333 Z M48.5666667,38.2333333 C49.1373609,38.2333333 49.6,38.6959725 49.6,39.2666667 L49.6,41.3333333 C49.6,41.9040275 49.1373609,42.3666667 48.5666667,42.3666667 L42.3666667,42.3666667 C41.7959725,42.3666667 41.3333333,41.9040275 41.3333333,41.3333333 C41.3333333,39.6212507 42.7212507,38.2333333 44.4333333,38.2333333 L48.5666667,38.2333333 Z M31,17.5666667 L31,19.6333333 L23.7666667,19.6333333 L23.7666667,17.5666667 L31,17.5666667 Z M31,15.5 L28.9333333,15.5 L28.9333333,13.4333333 L31,13.4333333 L31,15.5 Z M12.4444333,15.5 C12.8821619,14.2619161 14.0524806,13.4339581 15.3656667,13.4333333 L26.8666667,13.4333333 L26.8666667,15.5 L23.7666667,15.5 C22.6252782,15.5 21.7,16.4252782 21.7,17.5666667 L21.7,19.6333333 C21.7,20.7747218 22.6252782,21.7 23.7666667,21.7 L31,21.7 L31,22.2259667 C31.0111697,25.6238027 32.6616245,28.8073447 35.4319667,30.7747333 L37.2,32.0333333 L6.62573333,32.0333333 L12.4444333,15.5 Z M2.06666667,37.2 C2.06666667,35.4879173 3.45458394,34.1 5.16666667,34.1 L40.1036667,34.1 L43.2264,36.3237333 C40.9090505,36.8804601 39.2731818,38.9500559 39.2666667,41.3333333 C39.2666667,43.045416 40.654584,44.4333333 42.3666667,44.4333333 L48.5666667,44.4333333 C50.2787493,44.4333333 51.6666667,43.045416 51.6666667,41.3333333 L51.6666667,39.2666667 C51.6632941,37.9902289 50.8778718,36.8463422 49.6878333,36.3847 L52.2463667,34.5629333 C53.173098,35.1175274 53.7383689,36.1200092 53.7333333,37.2 L53.7333667,52.7 L50.6333333,52.7 L50.6333333,50.6333333 C50.6333333,49.4919448 49.7080551,48.5666667 48.5666667,48.5666667 L46.5,48.5666667 C45.3586115,48.5666667 44.4333333,49.4919448 44.4333333,50.6333333 L44.4333333,52.7 L11.3666667,52.7 L11.3666667,50.6333333 C11.3666667,49.4919448 10.4413885,48.5666667 9.3,48.5666667 L7.23333333,48.5666667 C6.09194485,48.5666667 5.16666667,49.4919448 5.16666667,50.6333333 L5.16666667,52.7 L2.06666667,52.7 L2.06666667,37.2 Z" id="Shape" fill="#5E72E4"></path>
                    <path d="M18.6,15.5 L16.8319667,15.5 C15.5183303,15.5014736 14.3475502,16.3288801 13.9076333,17.5666667 L10.0285,28.5902667 C9.83902953,29.1287167 10.1219333,29.7188128 10.6603833,29.9082833 C11.1988334,30.0977538 11.7889295,29.81485 11.9784,29.2764 L15.8575333,18.2569333 C16.003062,17.8434568 16.3936273,17.5667891 16.8319667,17.5666667 L18.6,17.5666667 C19.1706942,17.5666667 19.6333333,17.1040275 19.6333333,16.5333333 C19.6333333,15.9626391 19.1706942,15.5 18.6,15.5 Z" id="Shape" fill="#5E72E4"></path>
                    <path d="M7.23333333,44.4333333 L13.4333333,44.4333333 C15.145416,44.4333333 16.5333333,43.045416 16.5333333,41.3333333 C16.529917,38.4812784 14.2187216,36.170083 11.3666667,36.1666667 L7.23333333,36.1666667 C5.52125061,36.1666667 4.13333333,37.554584 4.13333333,39.2666667 L4.13333333,41.3333333 C4.13333333,43.045416 5.52125061,44.4333333 7.23333333,44.4333333 Z M6.2,39.2666667 C6.2,38.6959725 6.66263909,38.2333333 7.23333333,38.2333333 L11.3666667,38.2333333 C13.0787493,38.2333333 14.4666667,39.6212507 14.4666667,41.3333333 C14.4666667,41.9040275 14.0040275,42.3666667 13.4333333,42.3666667 L7.23333333,42.3666667 C6.66263909,42.3666667 6.2,41.9040275 6.2,41.3333333 L6.2,39.2666667 Z" id="Shape" fill="#5E72E4"></path>
                    <path d="M20.6666667,50.6333333 L35.1333333,50.6333333 C36.2747218,50.6333333 37.2,49.7080551 37.2,48.5666667 L37.2,44.4333333 C37.2,43.2919449 36.2747218,42.3666667 35.1333333,42.3666667 L20.6666667,42.3666667 C19.5252782,42.3666667 18.6,43.2919449 18.6,44.4333333 L18.6,48.5666667 C18.6,49.7080551 19.5252782,50.6333333 20.6666667,50.6333333 Z M20.6666667,44.4333333 L35.1333333,44.4333333 L35.1333333,48.5666667 L20.6666667,48.5666667 L20.6666667,44.4333333 Z" id="Shape" fill="#5E72E4"></path>
                </g>
            </g>
        </g>
    </g>
</svg>