<?xml version="1.0" encoding="UTF-8"?>
<svg width="20px" height="19px" viewBox="0 0 20 19" version="1.1" xmlns="http://www.w3.org/2000/svg" xmlns:xlink="http://www.w3.org/1999/xlink">
    <!-- Generator: Sketch 53 (72520) - https://sketchapp.com -->
    <title>icon_round</title>
    <desc>Created with Sketch.</desc>
    <g id="Customer-2" stroke="none" stroke-width="1" fill="none" fill-rule="evenodd">
        <g id="Customer-V2-Home-book1-1" transform="translate(-229.000000, -694.000000)" fill="#FFFFFF" fill-rule="nonzero">
            <g id="Group-2" transform="translate(209.000000, 681.000000)">
                <g id="icon_round" transform="translate(20.000000, 13.000000)">
                    <path d="M0.000689655172,3.38833333 C-0.000689655172,2.99777778 0.3,3.00340741 0.3,3.00340741 C1.57172414,3.00340741 11.3372414,3.00340741 13.0413793,3.00481481 C13.5965517,3.00340741 13.9558621,3.00481481 13.9558621,3.00481481 C13.9558621,3.00481481 13.9558621,1.6522963 13.9558621,0.801518519 C13.9558621,-0.0506666667 14.582069,0.593925926 14.582069,0.593925926 C14.582069,0.593925926 19.2682759,4.28414815 19.7627586,4.7872963 C20.1158621,5.15181481 19.7206897,5.49803704 19.7206897,5.49803704 L14.7006897,9.823 C14.7006897,9.823 14.1027586,10.4647778 14.1041379,9.76951852 C14.1055172,9.06862963 14.1041379,7.38185185 14.1041379,7.38185185 C14.1041379,7.38185185 13.7027586,7.38185185 13.0855172,7.37903704 C11.3206897,7.38185185 1.66344828,7.37903704 0.355172414,7.37903704 C0.355172414,7.37903704 0.000689655172,7.47403704 0.000689655172,6.92655556 C0.000689655172,6.37485185 0.000689655172,3.781 0.000689655172,3.38833333 Z" id="Path"></path>
                    <path d="M19.9096552,11.8447407 C19.9110345,11.4513704 19.6103448,11.4598148 19.6103448,11.4598148 C18.3413793,11.4598148 8.57310345,11.4598148 6.86758621,11.4612222 C6.3137931,11.4598148 5.95310345,11.4612222 5.95310345,11.4612222 C5.95310345,11.4612222 5.95310345,10.1072963 5.95310345,9.25651852 C5.95310345,8.40714815 5.32827586,9.04751852 5.32827586,9.04751852 C5.32827586,9.04751852 0.643448276,12.7377407 0.147586207,13.2394815 C-0.206896552,13.6054074 0.189655172,13.9558519 0.189655172,13.9558519 L5.20827586,18.2808148 C5.20827586,18.2808148 5.80413793,18.9211852 5.80413793,18.2231111 C5.80137931,17.5222222 5.80413793,15.8368519 5.80413793,15.8368519 C5.80413793,15.8368519 6.20551724,15.8368519 6.82413793,15.8326296 C8.58896552,15.8368519 18.2475862,15.8326296 19.5531034,15.8326296 C19.5531034,15.8326296 19.9103448,15.929037 19.9117241,15.3787407 C19.9096552,14.8291481 19.9096552,12.2381111 19.9096552,11.8447407 Z" id="Path"></path>
                </g>
            </g>
        </g>
    </g>
</svg>