<?xml version="1.0" encoding="UTF-8"?>
<svg width="23px" height="23px" viewBox="0 0 23 23" version="1.1" xmlns="http://www.w3.org/2000/svg" xmlns:xlink="http://www.w3.org/1999/xlink">
    <!-- Generator: Sketch 53 (72520) - https://sketchapp.com -->
    <title>icon_tel</title>
    <desc>Created with Sketch.</desc>
    <g id="Customer-2" stroke="none" stroke-width="1" fill="none" fill-rule="evenodd">
        <g id="Customer-V2-Contact-Us" transform="translate(-209.000000, -860.000000)" fill="#5E72E4" fill-rule="nonzero">
            <g id="icon_tel" transform="translate(209.000000, 860.000000)">
                <path d="M22.9535233,18.1504221 C23.0021848,18.5238737 22.8885751,18.8485796 22.613171,19.1245398 L19.3798238,22.3390087 C19.2339585,22.5013616 19.043563,22.639481 18.8085579,22.7530087 C18.5735527,22.8666955 18.342639,22.9397543 18.1158169,22.9721851 C18.0996097,22.9721851 18.0508687,22.9763633 17.9697927,22.984481 C17.8888756,22.9925588 17.7835285,22.9966972 17.6538705,22.9966972 C17.3458532,22.9966972 16.8474404,22.9439325 16.1586321,22.8383633 C15.4698238,22.7327941 14.6270864,22.4729896 13.6304197,22.0590692 C12.6335147,21.6450692 11.5030984,21.0239896 10.2389724,20.1960692 C8.97484629,19.3681886 7.62960449,18.2316384 6.20336615,16.7866574 C5.06885838,15.6664221 4.12883765,14.5948927 3.38330397,13.572109 C2.63777029,12.5492457 2.0381019,11.6035398 1.58429879,10.7349516 C1.13045596,9.86636332 0.790103627,9.07895156 0.563202073,8.37271626 C0.336300518,7.66648097 0.182331606,7.05765744 0.101295337,6.54624567 C0.0202590674,6.03483391 -0.0121554404,5.63301038 0.00405181347,5.34077509 C0.0202590674,5.04853979 0.0283626943,4.88618685 0.0283626943,4.85371626 C0.0607772021,4.62642215 0.133709845,4.3950692 0.247160622,4.15965744 C0.360611399,3.92424567 0.498373057,3.73348097 0.660445596,3.58736332 L3.89379275,0.348422145 C4.1206943,0.121128028 4.38001036,0.00748096886 4.67174093,0.00748096886 C4.88243523,0.00748096886 5.06881865,0.0683633218 5.23089119,0.190128028 C5.39296373,0.311892734 5.53072539,0.462069204 5.64417617,0.640657439 L8.24544041,5.5843045 C8.3913057,5.8440692 8.43182383,6.12818685 8.36699482,6.43665744 C8.3021658,6.74512803 8.16440415,7.00489273 7.95370984,7.21595156 L6.76247668,8.40924567 C6.73006218,8.44171626 6.70169948,8.49448097 6.6773886,8.56753979 C6.65307772,8.64059862 6.64092228,8.70148097 6.64092228,8.75018685 C6.7057513,9.09112803 6.85161658,9.48077509 7.07851813,9.91912803 C7.27300518,10.3087751 7.57283938,10.7836574 7.97802073,11.3437751 C8.38320207,11.9038927 8.95855959,12.5492059 9.70409326,13.2797941 C10.4334197,14.0266972 11.0817098,14.6070294 11.6489637,15.021109 C12.2160984,15.4349498 12.6903195,15.739481 13.07119,15.9343045 C13.4520604,16.129128 13.743791,16.2468339 13.946342,16.2873028 L14.2501485,16.3482249 C14.282563,16.3482249 14.3353558,16.3360087 14.408209,16.3116955 C14.4811416,16.2873028 14.5338152,16.2589308 14.5662694,16.2264204 L15.9519499,14.8139498 C16.2438394,14.5542249 16.5840328,14.4243426 16.9730466,14.4243426 C17.2486494,14.4243426 17.4673282,14.4730087 17.6294007,14.5704602 L17.6536718,14.5704602 L22.3456321,17.3466955 C22.6861036,17.5579135 22.8886546,17.8257163 22.9535233,18.1504221 Z" id="Path"></path>
            </g>
        </g>
    </g>
</svg>