<?xml version="1.0" encoding="UTF-8"?>
<svg width="16px" height="19px" viewBox="0 0 16 19" version="1.1" xmlns="http://www.w3.org/2000/svg" xmlns:xlink="http://www.w3.org/1999/xlink">
    <!-- Generator: Sketch 53 (72520) - https://sketchapp.com -->
    <title>icon_profile</title>
    <desc>Created with Sketch.</desc>
    <g id="Customer-2" stroke="none" stroke-width="1" fill="none" fill-rule="evenodd">
        <g id="Customer-V2-Booking-history" transform="translate(-1087.000000, -97.000000)" fill="#32325D" fill-rule="nonzero">
            <g id="icon_profile" transform="translate(1087.000000, 97.000000)">
                <path d="M7.92992701,10.2356108 C7.94939173,10.2356108 7.96885645,10.2356108 7.99221411,10.2356108 C8,10.2356108 8.00778589,10.2356108 8.01557178,10.2356108 C8.02725061,10.2356108 8.04282238,10.2356108 8.05450122,10.2356108 C9.19513382,10.215942 10.1177616,9.81076605 10.7990268,9.03581781 C12.2978102,7.32857143 12.0486618,4.40186335 12.0214112,4.12256729 C11.9240876,2.02587992 10.9430657,1.02277433 10.1333333,0.554658385 C9.52992701,0.204554865 8.82530414,0.0157349896 8.03892944,0 L8.01167883,0 C8.00778589,0 8,0 7.99610706,0 L7.97274939,0 C7.5406326,0 6.6919708,0.0708074534 5.8783455,0.538923395 C5.06082725,1.00703934 4.06423358,2.01014493 3.96690998,4.12256729 C3.93965937,4.40186335 3.69051095,7.32857143 5.1892944,9.03581781 C5.86666667,9.81076605 6.7892944,10.215942 7.92992701,10.2356108 Z M5.00632603,4.22091097 C5.00632603,4.20910973 5.01021898,4.19730849 5.01021898,4.18944099 C5.13868613,1.3689441 7.12019465,1.06604555 7.96885645,1.06604555 L7.98442822,1.06604555 C7.99221411,1.06604555 8.00389294,1.06604555 8.01557178,1.06604555 C9.06666667,1.08964803 10.853528,1.52236025 10.9742092,4.18944099 C10.9742092,4.20124224 10.9742092,4.21304348 10.9781022,4.22091097 C10.9819951,4.2484472 11.2545012,6.92339545 10.016545,8.33167702 C9.52603406,8.89026915 8.87201946,9.16563147 8.01167883,9.17349896 C8.00389294,9.17349896 8,9.17349896 7.99221411,9.17349896 L7.99221411,9.17349896 C7.98442822,9.17349896 7.98053528,9.17349896 7.97274939,9.17349896 C7.1163017,9.16563147 6.45839416,8.89026915 5.97177616,8.33167702 C4.7377129,6.93126294 5.00243309,4.24451346 5.00632603,4.22091097 Z" id="Shape"></path>
                <path d="M15.9922141,15.0898551 C15.9922141,15.0859213 15.9922141,15.0819876 15.9922141,15.0780538 C15.9922141,15.0465839 15.9883212,15.0151139 15.9883212,14.9797101 C15.9649635,14.2008282 15.9143552,12.3795031 14.2248175,11.7973085 C14.2131387,11.7933747 14.1975669,11.789441 14.1858881,11.7855072 C12.4301703,11.3331263 10.9703163,10.310352 10.9547445,10.2985507 C10.7172749,10.1293996 10.3902676,10.1884058 10.222871,10.4283644 C10.0554745,10.668323 10.1138686,10.9987578 10.3513382,11.1679089 C10.4175182,11.2151139 11.96691,12.3047619 13.9055961,12.8082816 C14.8126521,13.1347826 14.9138686,14.1142857 14.9411192,15.0111801 C14.9411192,15.0465839 14.9411192,15.0780538 14.9450122,15.1095238 C14.9489051,15.4635611 14.9255474,16.010352 14.8632603,16.3250518 C14.2326034,16.6869565 11.7605839,17.9378882 8,17.9378882 C4.25498783,17.9378882 1.76739659,16.6830228 1.13284672,16.321118 C1.07055961,16.0064182 1.043309,15.4596273 1.05109489,15.1055901 C1.05109489,15.0741201 1.05498783,15.0426501 1.05498783,15.0072464 C1.08223844,14.110352 1.18345499,13.1308489 2.09051095,12.8043478 C4.02919708,12.3008282 5.57858881,11.2072464 5.64476886,11.1639752 C5.88223844,10.994824 5.9406326,10.6643892 5.77323601,10.4244306 C5.60583942,10.184472 5.27883212,10.1254658 5.04136253,10.294617 C5.02579075,10.3064182 3.57372263,11.3291925 1.81021898,11.7815735 C1.7946472,11.7855072 1.78296837,11.789441 1.77128954,11.7933747 C0.0817518248,12.3795031 0.0311435523,14.2008282 0.00778588808,14.9757764 C0.00778588808,15.0111801 0.00778588808,15.0426501 0.00389294404,15.0741201 C0.00389294404,15.0780538 0.00389294404,15.0819876 0.00389294404,15.0859213 C-4.33680869e-19,15.2904762 -0.00389294404,16.3407867 0.20243309,16.8679089 C0.24136253,16.9701863 0.311435523,17.0567288 0.40486618,17.115735 C0.521654501,17.1944099 3.32068127,18.9960663 8.00389294,18.9960663 C12.6871046,18.9960663 15.4861314,17.1904762 15.6029197,17.115735 C15.6924574,17.0567288 15.7664234,16.9701863 15.8053528,16.8679089 C16,16.3447205 15.9961071,15.2944099 15.9922141,15.0898551 Z" id="Path"></path>
            </g>
        </g>
    </g>
</svg>