<?xml version="1.0" encoding="UTF-8"?>
<svg width="65px" height="48px" viewBox="0 0 65 48" version="1.1" xmlns="http://www.w3.org/2000/svg" xmlns:xlink="http://www.w3.org/1999/xlink">
    <!-- Generator: Sketch 53 (72520) - https://sketchapp.com -->
    <title>icon_airport</title>
    <desc>Created with Sketch.</desc>
    <g id="Customer-2" stroke="none" stroke-width="1" fill="none" fill-rule="evenodd">
        <g id="Customer-V2-Home" transform="translate(-208.000000, -1142.000000)" fill-rule="nonzero">
            <g id="Group-9" transform="translate(208.000000, 1142.000000)">
                <g id="icon_airport">
                    <rect id="Rectangle" fill="#F5385B" x="2.11236626" y="45.2792967" width="61.5226337" height="2.63736264"></rect>
                    <path d="M62.7034671,3.73213187 C58.2353189,1.16452747 53.1583642,2.52843956 49.686749,4.12457143 L39.3378395,8.88263736 L21.5390741,0.0561758242 L10.939393,0.505186813 L25.6370165,15.1963516 L16.2701955,19.5834725 L6.52487654,15.9266374 L0,18.9263736 L5.89667695,26.146022 C5.27369342,26.8788132 4.70915638,27.9105495 5.22166667,28.9942418 C5.89105967,30.4094505 7.86954733,31.1227253 11.1148663,31.1225934 C11.7803807,31.1225934 12.4992593,31.0926593 13.2708333,31.0325275 C16.8332613,30.7550769 20.6955453,29.8585055 23.1105761,28.7481758 L60.1038683,11.739956 C63.2990329,10.2708132 64.8905967,8.72821978 64.9695062,7.02369231 C65.0104321,6.13964835 64.6505247,4.85063736 62.7034671,3.73213187 Z M58.9731893,9.34958242 L21.9800309,26.3579341 C19.9225,27.303956 16.5445062,28.0966154 13.3742181,28.3772308 C10.1338477,28.664044 8.40131687,28.3039121 7.82380658,27.9981099 C7.94270576,27.8376264 8.16472222,27.5854945 8.57438272,27.229978 L9.53520576,26.3961758 L4.22446502,19.894022 L6.63,18.7879121 L16.385751,22.448967 L30.1840741,15.9862418 L17.0770782,2.88487912 L20.9584877,2.72043956 L39.2934362,11.8126154 L50.816893,6.51468132 C55.0254424,4.57978022 58.571286,4.41046154 61.3563889,6.01054945 L61.3565226,6.01068132 C62.0582819,6.4138022 62.30357,6.76549451 62.2971502,6.90342857 C62.2968827,6.91292308 62.2165021,7.85868132 58.9731893,9.34958242 Z" id="Shape" fill="#5E72E4"></path>
                </g>
            </g>
        </g>
    </g>
</svg>