<?xml version="1.0" encoding="UTF-8"?>
<svg width="16px" height="16px" viewBox="0 0 16 16" version="1.1" xmlns="http://www.w3.org/2000/svg" xmlns:xlink="http://www.w3.org/1999/xlink">
    <!-- Generator: Sketch 53 (72520) - https://sketchapp.com -->
    <title>icon_print</title>
    <desc>Created with Sketch.</desc>
    <g id="Customer-2" stroke="none" stroke-width="1" fill="none" fill-rule="evenodd">
        <g id="Customer-V2-Home-book5" transform="translate(-228.000000, -2818.000000)" fill="#32325D" fill-rule="nonzero">
            <g id="icon_print" transform="translate(228.000000, 2818.000000)">
                <path d="M4,12.5 L4,15.5 L12,15.5 L12,12.5 L12,10.5 L4,10.5 L4,12.5 Z M5,11.5 L11,11.5 L11,12.5 L5,12.5 L5,11.5 Z M5,13.5 L11,13.5 L11,14.5 L5,14.5 L5,13.5 Z" id="Shape"></path>
                <polygon id="Path" points="12 3.5 12 0.5 4 0.5 4 3.5 4 5.5 12 5.5"></polygon>
                <path d="M14,3.5 L13,3.5 L13,5.5 L13,6.5 L3,6.5 L3,5.5 L3,3.5 L2,3.5 C1,3.5 0,4.5 0,5.5 L0,10.5 C0,11.5 1,12.5 2,12.5 L3,12.5 L3,10.5 L3,9.5 L13,9.5 L13,10.5 L13,12.5 L14,12.5 C15,12.5 16,11.5 16,10.5 L16,5.5 C16,4.5 15,3.5 14,3.5 Z" id="Path"></path>
            </g>
        </g>
    </g>
</svg>