<?xml version="1.0" encoding="UTF-8"?>
<svg width="38px" height="38px" viewBox="0 0 38 38" version="1.1" xmlns="http://www.w3.org/2000/svg" xmlns:xlink="http://www.w3.org/1999/xlink">
    <!-- Generator: Sketch 53 (72520) - https://sketchapp.com -->
    <title>icon_md_1</title>
    <desc>Created with Sketch.</desc>
    <defs>
        <linearGradient x1="100%" y1="100%" x2="0%" y2="0%" id="linearGradient-1">
            <stop stop-color="#0EEAF0" offset="0%"></stop>
            <stop stop-color="#2786C2" offset="100%"></stop>
        </linearGradient>
    </defs>
    <g id="Customer-2" stroke="none" stroke-width="1" fill="none" fill-rule="evenodd">
        <g id="Customer-V2-Slices-Copy" transform="translate(-1248.000000, -328.000000)">
            <g id="icon_md_1" transform="translate(1248.000000, 328.000000)">
                <circle id="Oval-Copy-4" fill="url(#linearGradient-1)" cx="19" cy="19" r="19"></circle>
                <path d="M22.9785317,17.8838268 C21.998373,17.3642392 20.9563095,16.9683629 19.9245635,16.5576412 C19.3261508,16.3201155 18.7535317,16.0430021 18.2479762,15.6570227 C17.2523413,14.8949608 17.4432143,13.6578474 18.6090873,13.1679505 C18.939246,13.0293938 19.284881,12.9848577 19.6356746,12.9650639 C20.9872619,12.8957856 22.2717857,13.1333113 23.4944048,13.6974351 C24.1031349,13.9794969 24.3043254,13.8904247 24.5106746,13.2817649 C24.7273413,12.638466 24.9078968,11.9852701 25.1090873,11.3370227 C25.2432143,10.9015588 25.0781349,10.6145485 24.6499603,10.4314557 C23.8658333,10.0999093 23.0610714,9.86238351 22.2150397,9.73372371 C21.1110714,9.57042474 21.1110714,9.56547629 21.1059127,8.50155876 C21.100754,7.00217732 21.100754,7.00217732 19.5325,7.00217732 C19.3055159,7.00217732 19.0785317,6.99722887 18.8515476,7.00217732 C18.1190079,7.02197113 17.9951984,7.14568247 17.9745635,7.85331134 C17.964246,8.17001237 17.9745635,8.4867134 17.9694048,8.80836289 C17.964246,9.74856907 17.9590873,9.73372371 17.0201984,10.0603216 C14.7503571,10.8520742 13.3471825,12.3366103 13.1975794,14.711868 C13.0634524,16.8149608 14.2086905,18.235167 16.0090873,19.2693938 C17.1182143,19.9077443 18.3459921,20.2838268 19.5221825,20.7836206 C19.9813095,20.9766103 20.4198016,21.1992907 20.8015476,21.5060948 C21.9313095,22.4017649 21.7249603,23.8912495 20.3836905,24.4553732 C19.666627,24.7572289 18.9082937,24.8314557 18.1293254,24.7374351 C16.9273413,24.5939299 15.7769444,24.2920742 14.6936111,23.7526928 C14.0590873,23.4359918 13.873373,23.5201155 13.6567063,24.1782598 C13.4709921,24.747332 13.3059127,25.3213526 13.1408333,25.8953732 C12.9190079,26.667332 13.0015476,26.8504247 13.7701984,27.2116619 C14.7503571,27.6669196 15.7975794,27.8994969 16.8654365,28.0627959 C17.7011508,28.1914557 17.7269444,28.2260948 17.7372619,29.0574351 C17.7424206,29.4335175 17.7424206,29.8145485 17.7475794,30.1906309 C17.7527381,30.6656825 17.9900397,30.9427959 18.500754,30.9526928 C19.0785317,30.9625897 19.6614683,30.9625897 20.239246,30.9477443 C20.7138492,30.9378474 20.9563095,30.6904247 20.9563095,30.2302186 C20.9563095,29.7155794 20.9821032,29.1959918 20.9614683,28.6813526 C20.9356746,28.1568165 21.1729762,27.8896 21.6991667,27.7510433 C22.9114683,27.4343423 23.9432143,26.8108371 24.7376587,25.8805278 C26.9455952,23.307332 26.1047222,19.5415588 22.9785317,17.8838268 Z" id="Path" fill="#FFFFFF" fill-rule="nonzero"></path>
            </g>
        </g>
    </g>
</svg>