<?xml version="1.0" encoding="UTF-8"?>
<svg width="20px" height="20px" viewBox="0 0 20 20" version="1.1" xmlns="http://www.w3.org/2000/svg" xmlns:xlink="http://www.w3.org/1999/xlink">
    <!-- Generator: Sketch 53 (72520) - https://sketchapp.com -->
    <title>icon_date</title>
    <desc>Created with Sketch.</desc>
    <g id="Customer-2" stroke="none" stroke-width="1" fill="none" fill-rule="evenodd" fill-opacity="0.5">
        <g id="Customer-V2-Home" transform="translate(-1187.000000, -528.000000)" fill="#8898AA" fill-rule="nonzero">
            <g id="Group-7" transform="translate(832.000000, 265.000000)">
                <g id="icon_date" transform="translate(355.000000, 263.000000)">
                    <polygon id="Path" points="4.58826087 9.28434783 4.90217391 10.7108696 6.46 9.96434783 6.48347826 9.96434783 6.48347826 16.4465217 8.34565217 16.4465217 8.34565217 8.27565217 6.74913043 8.27565217"></polygon>
                    <path d="M14.3534783,11.6756522 C13.7769565,11.2613043 12.9856522,11.086087 12.2065217,11.086087 C12.0052174,11.086087 11.853913,11.0891304 11.6782609,11.113913 L11.853913,9.86130435 L15.0330435,9.86130435 L15.0330435,8.27608696 L10.5226087,8.27608696 L9.98347826,12.5630435 C10.3230435,12.5126087 10.636087,12.49 11.0882609,12.49 C12.7213043,12.49 13.3865217,13.0065217 13.3865217,13.8478261 C13.3865217,14.7143478 12.5443478,15.0913043 11.753913,15.0913043 C11.0130435,15.0913043 10.2721739,14.8652174 9.90826087,14.69 L9.56869565,16.1217391 C10.0213043,16.36 10.8504348,16.586087 11.8421739,16.586087 C14.04,16.586087 15.3465217,15.2421739 15.3465217,13.7230435 C15.346087,12.7678261 14.9695652,12.09 14.3534783,11.6756522 Z" id="Path"></path>
                    <path d="M17.5852174,1.23652174 L17.5852174,2.23304348 C17.5852174,3.23782609 16.7608696,4.06913043 15.7569565,4.06913043 L15.6634783,4.06913043 C14.6591304,4.06913043 13.8265217,3.2373913 13.8265217,2.23304348 L13.8265217,1.10434783 L11.8265217,1.10434783 L11.8265217,2.23304348 C11.8265217,3.23782609 10.9943478,4.06913043 9.99,4.06913043 L9.89782609,4.06913043 C8.8926087,4.06913043 8.06826087,3.2373913 8.06826087,2.23304348 L8.06826087,1.10434783 L6.03478261,1.10434783 L6.03478261,2.23304348 C6.03478261,3.23782609 5.22913043,4.06913043 4.22478261,4.06913043 L4.13173913,4.06913043 C3.12695652,4.06913043 2.31086957,3.2373913 2.31086957,2.23304348 L2.31086957,1.25173913 C1.13869565,1.63652174 0.311304348,2.73304348 0.311304348,4.02521739 L0.311304348,17.0191304 C0.311304348,18.6326087 1.61434783,19.9282609 3.22782609,19.9282609 L16.7047826,19.9282609 C18.3182609,19.9282609 19.6173913,18.6326087 19.6173913,17.0191304 L19.6173913,4.02521739 C19.6191304,2.71652174 18.7573913,1.6073913 17.5852174,1.23652174 Z M18.1713043,16.7508696 C18.1713043,17.6847826 17.4204348,18.4456522 16.4865217,18.4456522 L3.44782609,18.4456522 C2.51391304,18.4456522 1.76043478,17.6847826 1.76043478,16.7508696 L1.76043478,7.51956522 C1.76043478,6.88347826 2.27173913,6.37869565 2.90826087,6.37869565 L17.0265217,6.37869565 C17.6630435,6.37869565 18.1717391,6.88347826 18.1717391,7.51956522 L18.1713043,16.7508696 L18.1713043,16.7508696 Z" id="Shape"></path>
                    <path d="M4.13304348,3.17217391 L4.22565217,3.17217391 C4.51434783,3.17217391 4.77086957,3.05043478 4.94521739,2.8473913 C5.08913043,2.68043478 5.17347826,2.47043478 5.17347826,2.2326087 L5.17347826,2.2326087 L5.17347826,0.940869565 L5.17347826,0.940869565 C5.17347826,0.68 5.07130435,0.443478261 4.90130435,0.271304348 C4.89956522,0.27 4.89956522,0.267826087 4.89826087,0.266521739 C4.89695652,0.265217391 4.89652174,0.27173913 4.89565217,0.270434783 C4.72304348,0.0995652174 4.48695652,0.000869565217 4.22521739,0.000869565217 L4.1326087,0.000869565217 C3.87043478,0.000869565217 3.63391304,0.0995652174 3.46130435,0.270434783 C3.46086957,0.27173913 3.46,0.269130435 3.45869565,0.27 C3.45695652,0.27173913 3.45304348,0.271304348 3.45173913,0.272173913 C3.28130435,0.444782609 3.17391304,0.679130435 3.17391304,0.940434783 L3.17391304,0.940434783 L3.17391304,2.23304348 L3.17391304,2.23304348 C3.17391304,2.47043478 3.26347826,2.68086957 3.4073913,2.84782609 C3.58217391,3.05130435 3.84391304,3.17217391 4.13304348,3.17217391 Z" id="Path"></path>
                    <path d="M9.35434783,3.02043478 C9.35608696,3.02130435 9.36086957,3.0226087 9.36217391,3.02347826 C9.36478261,3.02521739 9.37,3.02 9.37217391,3.02173913 C9.52304348,3.12130435 9.70434783,3.1726087 9.89869565,3.1726087 L9.89913043,3.1726087 L9.99130435,3.1726087 L9.99130435,3.1726087 C10.1547826,3.1726087 10.3082609,3.13869565 10.4421739,3.06608696 C10.443913,3.06565217 10.4447826,3.06869565 10.4465217,3.06782609 C10.4491304,3.06608696 10.4456522,3.06608696 10.4491304,3.06391304 C10.7413043,2.90086957 10.9321739,2.59086957 10.9321739,2.2326087 L10.9321739,0.940434783 C10.9321739,0.630434783 10.7904348,0.354782609 10.5608696,0.180434783 C10.5586957,0.179130435 10.5604348,0.177391304 10.5586957,0.176086957 L10.5604348,0.183478261 C10.4017391,0.0643478261 10.206087,0.00130434783 9.99173913,0.00130434783 L9.89913043,0.00130434783 C9.6526087,0.00130434783 9.42826087,0.087826087 9.25913043,0.241304348 C9.25869565,0.241304348 9.25826087,0.23826087 9.25826087,0.23826087 C9.25608696,0.24 9.24782609,0.24 9.24608696,0.24173913 C9.05695652,0.416086957 8.93173913,0.663478261 8.93173913,0.940869565 L8.93173913,2.23391304 C8.93130435,2.56 9.10347826,2.84869565 9.35434783,3.02043478 Z" id="Path"></path>
                    <path d="M15.6643478,3.17217391 L15.7569565,3.17217391 C16.0465217,3.17217391 16.3104348,3.05043478 16.4865217,2.8473913 C16.6304348,2.68043478 16.7243478,2.47043478 16.7243478,2.2326087 L16.7243478,2.2326087 L16.7243478,0.940869565 L16.7243478,0.940869565 C16.7243478,0.580434783 16.5169565,0.266956522 16.2226087,0.104347826 C16.2204348,0.103478261 16.216087,0.102608696 16.2147826,0.10173913 C16.1908696,0.0891304348 16.1656522,0.077826087 16.1413043,0.0669565217 C16.1365217,0.0652173913 16.1321739,0.0634782609 16.1291304,0.0617391304 C16.1230435,0.0595652174 16.1173913,0.0573913043 16.1113043,0.0547826087 C16.1021739,0.0513043478 16.093913,0.047826087 16.0847826,0.0447826087 C16.0795652,0.0430434783 16.0756522,0.0417391304 16.0708696,0.04 C16.0613043,0.0365217391 16.0504348,0.04 16.0408696,0.0369565217 C15.9517391,0.00913043478 15.8556522,0.000869565217 15.7573913,0.000869565217 L15.6647826,0.000869565217 C15.6156522,0.000869565217 15.573913,-0.00217391304 15.5265217,0.0047826087 C15.0678261,0.0747826087 14.723913,0.463478261 14.723913,0.940434783 L14.723913,2.23347826 C14.7234783,2.75956522 15.1378261,3.17217391 15.6643478,3.17217391 Z" id="Path"></path>
                </g>
            </g>
        </g>
    </g>
</svg>