<?xml version="1.0" encoding="UTF-8"?>
<svg width="20px" height="14px" viewBox="0 0 20 14" version="1.1" xmlns="http://www.w3.org/2000/svg" xmlns:xlink="http://www.w3.org/1999/xlink">
    <!-- Generator: Sketch 53 (72520) - https://sketchapp.com -->
    <title>icon_vehicle</title>
    <desc>Created with Sketch.</desc>
    <g id="Customer-2" stroke="none" stroke-width="1" fill="none" fill-rule="evenodd">
        <g id="Customer-V2-Home-book1-1" transform="translate(-403.000000, -283.000000)" fill="#32325D" fill-rule="nonzero">
            <g id="icon_vehicle" transform="translate(403.000000, 283.000000)">
                <path d="M19.4155,4.47034483 C19.32,4.35786207 19.1775,4.2922069 19.028,4.2922069 L17.1275,4.2922069 C16.6585,3.09786207 16.0475,1.92765517 15.353,1.48593103 C12.9505,-0.0400689655 6.578,-0.0400689655 4.1755,1.48593103 C3.4805,1.92813793 2.872,3.0997931 2.4005,4.2922069 L0.5,4.2922069 C0.349,4.2922069 0.207,4.35786207 0.1125,4.47034483 C0.0175,4.58234483 -0.0205,4.73055172 0.0105,4.87296552 L0.292,6.18993103 C0.34,6.41441379 0.545,6.57468966 0.7815,6.57468966 L1.3445,6.57468966 C0.801,7.18006897 0.5375,7.94234483 0.534,8.70510345 C0.5305,9.64744828 0.901,10.4990345 1.5785,11.1015172 C1.586,11.1077931 1.5935,11.1121379 1.6005,11.1184138 L1.6005,12.9611034 C1.6005,13.3603448 1.9365,13.6852414 2.3505,13.6852414 L4.1035,13.6852414 C4.5175,13.6852414 4.8535,13.3603448 4.8535,12.9611034 L4.8535,12.2205517 L14.674,12.2205517 L14.674,12.9611034 C14.674,13.3603448 15.01,13.6852414 15.424,13.6852414 L17.177,13.6852414 C17.59,13.6852414 17.927,13.3603448 17.927,12.9611034 L17.927,11.1546207 C18.646,10.5188276 18.9895,9.64406897 18.994,8.77075862 C18.997,7.98193103 18.7215,7.19165517 18.146,6.57372414 L18.7465,6.57372414 C18.984,6.57372414 19.189,6.41344828 19.236,6.18848276 L19.518,4.872 C19.547,4.73055172 19.5105,4.58331034 19.4155,4.47034483 Z M4.999,2.69524138 C6.914,1.4782069 12.6135,1.4782069 14.5275,2.69524138 C14.8995,2.93082759 15.378,3.88331034 15.8165,5.04965517 L3.711,5.04965517 C4.1485,3.8837931 4.627,2.9317931 4.999,2.69524138 Z M2.756,8.88662069 C2.756,8.09972414 3.417,7.46248276 4.2315,7.46248276 C5.047,7.46248276 5.707,8.09972414 5.707,8.88662069 C5.707,9.67351724 5.047,10.3112414 4.2315,10.3112414 C3.417,10.3112414 2.756,9.67351724 2.756,8.88662069 Z M15.3155,10.3112414 C14.501,10.3112414 13.84,9.67351724 13.84,8.88662069 C13.84,8.09972414 14.501,7.46248276 15.3155,7.46248276 C16.131,7.46248276 16.791,8.09972414 16.791,8.88662069 C16.791,9.67351724 16.13,10.3112414 15.3155,10.3112414 Z" id="Shape"></path>
            </g>
        </g>
    </g>
</svg>