<?xml version="1.0" encoding="UTF-8"?>
<svg width="14px" height="14px" viewBox="0 0 14 14" version="1.1" xmlns="http://www.w3.org/2000/svg" xmlns:xlink="http://www.w3.org/1999/xlink">
    <!-- Generator: Sketch 53 (72520) - https://sketchapp.com -->
    <title>icon_phone_signup</title>
    <desc>Created with Sketch.</desc>
    <g id="Customer-2" stroke="none" stroke-width="1" fill="none" fill-rule="evenodd">
        <g id="Customer-V2-sign-up" transform="translate(-599.000000, -415.000000)" fill="#AEB5BD" fill-rule="nonzero">
            <g id="icon_phone_signup" transform="translate(599.000000, 415.000000)">
                <path d="M13.9717098,11.048083 C14.0013299,11.2754014 13.9321762,11.4730484 13.7645389,11.6410242 L11.7964145,13.5976574 C11.7076269,13.696481 11.591734,13.7805536 11.4486874,13.8496574 C11.3056408,13.9188581 11.1650846,13.9633287 11.027019,13.9830692 C11.0171537,13.9830692 10.9874853,13.9856125 10.9381347,13.9905536 C10.8888808,13.9954706 10.8247565,13.9979896 10.7458342,13.9979896 C10.5583454,13.9979896 10.2549637,13.965872 9.83568912,13.9016125 C9.41641451,13.8373529 8.90344387,13.6792111 8.2967772,13.4272595 C7.68996546,13.1752595 7.00188601,12.7972111 6.23241796,12.2932595 C5.46294991,11.7893322 4.64410708,11.097519 3.775962,10.2179654 C3.08539206,9.53608304 2.51320553,8.88384775 2.05940242,8.26128374 C1.60559931,7.63867128 1.24058377,7.06302422 0.964355786,6.53431834 C0.688103627,6.00561246 0.480932642,5.52631834 0.342818653,5.09643599 C0.204704663,4.66655363 0.110984456,4.2959654 0.0616580311,3.98467128 C0.0123316062,3.67337716 -0.00739896373,3.42878893 0.00246632124,3.25090657 C0.0123316062,3.07302422 0.0172642487,2.97420069 0.0172642487,2.95443599 C0.0369948187,2.81608304 0.081388601,2.67525952 0.150445596,2.5319654 C0.219502591,2.38867128 0.303357513,2.27255363 0.402010363,2.18361246 L2.37013472,0.212083045 C2.5082487,0.0737301038 2.66609326,0.00455363322 2.84366839,0.00455363322 C2.9719171,0.00455363322 3.08536788,0.0416124567 3.18402073,0.115730104 C3.28267358,0.189847751 3.3665285,0.281259516 3.43558549,0.389965398 L5.01896373,3.39914187 C5.1077513,3.55725952 5.13241451,3.73020069 5.09295337,3.9179654 C5.05349223,4.1057301 4.96963731,4.26384775 4.8413886,4.39231834 L4.11629016,5.11867128 C4.09655959,5.13843599 4.07929534,5.17055363 4.06449741,5.21502422 C4.04969948,5.25949481 4.04230052,5.29655363 4.04230052,5.32620069 C4.08176166,5.5337301 4.17054922,5.77090657 4.30866321,6.0377301 C4.42704663,6.27490657 4.6095544,6.5639654 4.85618653,6.90490657 C5.10281865,7.24584775 5.45303627,7.63864706 5.90683938,8.08335294 C6.3507772,8.53798962 6.7453886,8.89123529 7.09067358,9.14328374 C7.43588601,9.39518685 7.72454231,9.58055363 7.95637651,9.69914187 C8.18821071,9.8177301 8.36578584,9.88937716 8.48907772,9.91401038 L8.67400345,9.95109343 C8.69373402,9.95109343 8.72586874,9.94365744 8.77021416,9.92885813 C8.81460794,9.91401038 8.84667012,9.89674048 8.86642487,9.87695156 L9.70988256,9.01718685 C9.8875544,8.85909343 10.0946287,8.7800346 10.3314197,8.7800346 C10.4991779,8.7800346 10.6322867,8.80965744 10.7309396,8.86897578 L10.7457133,8.86897578 L13.6016891,10.5588581 C13.8089326,10.6874256 13.9322245,10.850436 13.9717098,11.048083 Z" id="Path"></path>
            </g>
        </g>
    </g>
</svg>