<?xml version="1.0" encoding="UTF-8"?>
<svg width="22px" height="22px" viewBox="0 0 22 22" version="1.1" xmlns="http://www.w3.org/2000/svg" xmlns:xlink="http://www.w3.org/1999/xlink">
    <!-- Generator: Sketch 53 (72520) - https://sketchapp.com -->
    <title>icon_fax</title>
    <desc>Created with Sketch.</desc>
    <g id="Customer-2" stroke="none" stroke-width="1" fill="none" fill-rule="evenodd">
        <g id="Customer-V2-Contact-Us" transform="translate(-210.000000, -930.000000)" fill="#5E72E4" fill-rule="nonzero">
            <g id="icon_fax" transform="translate(210.000000, 930.000000)">
                <path d="M5.5,17.1875 L5.5,21.3125 L16.5,21.3125 L16.5,17.1875 L16.5,14.4375 L5.5,14.4375 L5.5,17.1875 Z M6.875,15.8125 L15.125,15.8125 L15.125,17.1875 L6.875,17.1875 L6.875,15.8125 Z M6.875,18.5625 L15.125,18.5625 L15.125,19.9375 L6.875,19.9375 L6.875,18.5625 Z" id="Shape"></path>
                <polygon id="Path" points="16.5 4.8125 16.5 0.6875 5.5 0.6875 5.5 4.8125 5.5 7.5625 16.5 7.5625"></polygon>
                <path d="M19.25,4.8125 L17.875,4.8125 L17.875,7.5625 L17.875,8.9375 L4.125,8.9375 L4.125,7.5625 L4.125,4.8125 L2.75,4.8125 C1.375,4.8125 0,6.1875 0,7.5625 L0,14.4375 C0,15.8125 1.375,17.1875 2.75,17.1875 L4.125,17.1875 L4.125,14.4375 L4.125,13.0625 L17.875,13.0625 L17.875,14.4375 L17.875,17.1875 L19.25,17.1875 C20.625,17.1875 22,15.8125 22,14.4375 L22,7.5625 C22,6.1875 20.625,4.8125 19.25,4.8125 Z" id="Path"></path>
            </g>
        </g>
    </g>
</svg>